<mxfile host="app.diagrams.net" agent="Mozilla/5.0 (Windows NT 10.0; Win64; x64) AppleWebKit/537.36 (KHTML, like Gecko) Chrome/129.0.0.0 Safari/537.36" version="24.7.17">
  <diagram id="C5RBs43oDa-KdzZeNtuy" name="Page-1">
    <mxGraphModel dx="1462" dy="1170" grid="1" gridSize="10" guides="1" tooltips="1" connect="1" arrows="1" fold="1" page="0" pageScale="1" pageWidth="827" pageHeight="1169" math="0" shadow="0">
      <root>
        <mxCell id="WIyWlLk6GJQsqaUBKTNV-0" />
        <object label="Zones WIP" id="WIyWlLk6GJQsqaUBKTNV-1">
          <mxCell parent="WIyWlLk6GJQsqaUBKTNV-0" visible="0" />
        </object>
        <mxCell id="Ypcl96a1hTGtZCt59TjE-2" value="Starting Area" style="swimlane;whiteSpace=wrap;html=1;" parent="WIyWlLk6GJQsqaUBKTNV-1" vertex="1">
          <mxGeometry x="60" y="70" width="450" height="370" as="geometry" />
        </mxCell>
        <mxCell id="Ypcl96a1hTGtZCt59TjE-0" value="Start_Room&lt;div&gt;&quot;Empty Alley&quot;&lt;/div&gt;" style="whiteSpace=wrap;html=1;aspect=fixed;" parent="Ypcl96a1hTGtZCt59TjE-2" vertex="1">
          <mxGeometry x="20" y="50" width="80" height="80" as="geometry" />
        </mxCell>
        <mxCell id="Ypcl96a1hTGtZCt59TjE-25" value="Door" style="shape=card;whiteSpace=wrap;html=1;" parent="Ypcl96a1hTGtZCt59TjE-2" vertex="1">
          <mxGeometry x="140" y="50" width="80" height="70" as="geometry" />
        </mxCell>
        <mxCell id="Ypcl96a1hTGtZCt59TjE-26" value="" style="endArrow=classic;startArrow=classic;html=1;rounded=0;entryX=0;entryY=0;entryDx=0;entryDy=50;entryPerimeter=0;" parent="Ypcl96a1hTGtZCt59TjE-2" target="Ypcl96a1hTGtZCt59TjE-25" edge="1">
          <mxGeometry width="50" height="50" relative="1" as="geometry">
            <mxPoint x="100" y="100" as="sourcePoint" />
            <mxPoint x="100" y="180" as="targetPoint" />
          </mxGeometry>
        </mxCell>
        <mxCell id="Ypcl96a1hTGtZCt59TjE-4" value="Area" style="swimlane;whiteSpace=wrap;html=1;" parent="WIyWlLk6GJQsqaUBKTNV-1" vertex="1">
          <mxGeometry x="570" y="70" width="250" height="270" as="geometry">
            <mxRectangle x="570" y="70" width="70" height="30" as="alternateBounds" />
          </mxGeometry>
        </mxCell>
        <mxCell id="Ypcl96a1hTGtZCt59TjE-13" style="edgeStyle=orthogonalEdgeStyle;rounded=0;orthogonalLoop=1;jettySize=auto;html=1;exitX=1;exitY=0.5;exitDx=0;exitDy=0;entryX=0;entryY=0.5;entryDx=0;entryDy=0;startArrow=classic;startFill=1;" parent="Ypcl96a1hTGtZCt59TjE-4" source="Ypcl96a1hTGtZCt59TjE-5" target="Ypcl96a1hTGtZCt59TjE-22" edge="1">
          <mxGeometry relative="1" as="geometry">
            <mxPoint x="140" y="80" as="targetPoint" />
          </mxGeometry>
        </mxCell>
        <mxCell id="Ypcl96a1hTGtZCt59TjE-14" style="edgeStyle=orthogonalEdgeStyle;rounded=0;orthogonalLoop=1;jettySize=auto;html=1;exitX=0.5;exitY=1;exitDx=0;exitDy=0;" parent="Ypcl96a1hTGtZCt59TjE-4" source="Ypcl96a1hTGtZCt59TjE-5" target="Ypcl96a1hTGtZCt59TjE-12" edge="1">
          <mxGeometry relative="1" as="geometry" />
        </mxCell>
        <mxCell id="Ypcl96a1hTGtZCt59TjE-5" value="Normal_Room&lt;div&gt;&quot;Room Name&lt;/div&gt;" style="whiteSpace=wrap;html=1;aspect=fixed;fillStyle=auto;perimeterSpacing=0;" parent="Ypcl96a1hTGtZCt59TjE-4" vertex="1">
          <mxGeometry x="30" y="50" width="80" height="80" as="geometry" />
        </mxCell>
        <mxCell id="Ypcl96a1hTGtZCt59TjE-12" value="Area" style="ellipse;whiteSpace=wrap;html=1;aspect=fixed;" parent="Ypcl96a1hTGtZCt59TjE-4" vertex="1">
          <mxGeometry x="30" y="170" width="80" height="80" as="geometry" />
        </mxCell>
        <mxCell id="Ypcl96a1hTGtZCt59TjE-28" style="edgeStyle=orthogonalEdgeStyle;rounded=0;orthogonalLoop=1;jettySize=auto;html=1;exitX=0.5;exitY=1;exitDx=0;exitDy=0;startArrow=classic;startFill=1;" parent="Ypcl96a1hTGtZCt59TjE-4" source="Ypcl96a1hTGtZCt59TjE-22" target="Ypcl96a1hTGtZCt59TjE-27" edge="1">
          <mxGeometry relative="1" as="geometry" />
        </mxCell>
        <mxCell id="Ypcl96a1hTGtZCt59TjE-22" value="Dark_Room&lt;div&gt;&quot;Room Name&quot;&lt;/div&gt;" style="whiteSpace=wrap;html=1;aspect=fixed;dashed=1;" parent="Ypcl96a1hTGtZCt59TjE-4" vertex="1">
          <mxGeometry x="150" y="50" width="80" height="80" as="geometry" />
        </mxCell>
        <mxCell id="Ypcl96a1hTGtZCt59TjE-27" value="Door" style="shape=card;whiteSpace=wrap;html=1;" parent="Ypcl96a1hTGtZCt59TjE-4" vertex="1">
          <mxGeometry x="150" y="170" width="80" height="70" as="geometry" />
        </mxCell>
        <mxCell id="lni71YWlgwytNNIKN3gq-3" value="Storm Drains" parent="WIyWlLk6GJQsqaUBKTNV-0" />
        <mxCell id="lni71YWlgwytNNIKN3gq-348" value="" style="shape=flexArrow;endArrow=none;html=1;rounded=0;endFill=0;dashed=1;fillColor=#fff2cc;gradientColor=none;strokeColor=#d6b656;" parent="lni71YWlgwytNNIKN3gq-3" edge="1">
          <mxGeometry width="50" height="50" relative="1" as="geometry">
            <mxPoint x="-80" y="390" as="sourcePoint" />
            <mxPoint x="720" y="390" as="targetPoint" />
          </mxGeometry>
        </mxCell>
        <mxCell id="lni71YWlgwytNNIKN3gq-349" value="" style="shape=flexArrow;endArrow=none;html=1;rounded=0;endFill=0;dashed=1;fillColor=#fff2cc;gradientColor=none;strokeColor=#d6b656;" parent="lni71YWlgwytNNIKN3gq-3" edge="1">
          <mxGeometry width="50" height="50" relative="1" as="geometry">
            <mxPoint x="-80" y="-10" as="sourcePoint" />
            <mxPoint x="720" y="-10" as="targetPoint" />
          </mxGeometry>
        </mxCell>
        <mxCell id="lni71YWlgwytNNIKN3gq-350" value="" style="shape=flexArrow;endArrow=none;html=1;rounded=0;endFill=0;dashed=1;fillColor=#fff2cc;gradientColor=none;strokeColor=#d6b656;" parent="lni71YWlgwytNNIKN3gq-3" edge="1">
          <mxGeometry width="50" height="50" relative="1" as="geometry">
            <mxPoint x="109" y="520" as="sourcePoint" />
            <mxPoint x="109" y="-120" as="targetPoint" />
          </mxGeometry>
        </mxCell>
        <mxCell id="lni71YWlgwytNNIKN3gq-351" value="" style="shape=flexArrow;endArrow=none;html=1;rounded=0;endFill=0;dashed=1;fillColor=#fff2cc;gradientColor=none;strokeColor=#d6b656;" parent="lni71YWlgwytNNIKN3gq-3" edge="1">
          <mxGeometry width="50" height="50" relative="1" as="geometry">
            <mxPoint x="349" y="520" as="sourcePoint" />
            <mxPoint x="349" y="-120" as="targetPoint" />
          </mxGeometry>
        </mxCell>
        <mxCell id="lni71YWlgwytNNIKN3gq-352" value="" style="shape=flexArrow;endArrow=none;html=1;rounded=0;endFill=0;dashed=1;fillColor=#fff2cc;gradientColor=none;strokeColor=#d6b656;" parent="lni71YWlgwytNNIKN3gq-3" edge="1">
          <mxGeometry width="50" height="50" relative="1" as="geometry">
            <mxPoint x="669" y="520" as="sourcePoint" />
            <mxPoint x="669" y="-120" as="targetPoint" />
          </mxGeometry>
        </mxCell>
        <mxCell id="lni71YWlgwytNNIKN3gq-387" value="" style="whiteSpace=wrap;html=1;aspect=fixed;fillColor=#fff2cc;strokeColor=#d6b656;gradientColor=none;" parent="lni71YWlgwytNNIKN3gq-3" vertex="1">
          <mxGeometry x="99" y="380" width="20" height="20" as="geometry" />
        </mxCell>
        <mxCell id="lni71YWlgwytNNIKN3gq-404" value="" style="whiteSpace=wrap;html=1;aspect=fixed;fillColor=#fff2cc;strokeColor=#d6b656;gradientColor=none;" parent="lni71YWlgwytNNIKN3gq-3" vertex="1">
          <mxGeometry x="339" y="380" width="20" height="20" as="geometry" />
        </mxCell>
        <mxCell id="lni71YWlgwytNNIKN3gq-405" value="" style="whiteSpace=wrap;html=1;aspect=fixed;fillColor=#fff2cc;strokeColor=#d6b656;gradientColor=none;" parent="lni71YWlgwytNNIKN3gq-3" vertex="1">
          <mxGeometry x="659" y="379" width="20" height="20" as="geometry" />
        </mxCell>
        <mxCell id="lni71YWlgwytNNIKN3gq-406" value="" style="whiteSpace=wrap;html=1;aspect=fixed;fillColor=#fff2cc;strokeColor=#d6b656;gradientColor=none;" parent="lni71YWlgwytNNIKN3gq-3" vertex="1">
          <mxGeometry x="100" y="-20" width="20" height="20" as="geometry" />
        </mxCell>
        <mxCell id="lni71YWlgwytNNIKN3gq-407" value="" style="whiteSpace=wrap;html=1;aspect=fixed;fillColor=#fff2cc;strokeColor=#d6b656;gradientColor=none;" parent="lni71YWlgwytNNIKN3gq-3" vertex="1">
          <mxGeometry x="339" y="-21" width="20" height="20" as="geometry" />
        </mxCell>
        <mxCell id="lni71YWlgwytNNIKN3gq-408" value="" style="whiteSpace=wrap;html=1;aspect=fixed;fillColor=#fff2cc;strokeColor=#d6b656;gradientColor=none;" parent="lni71YWlgwytNNIKN3gq-3" vertex="1">
          <mxGeometry x="659" y="-21" width="20" height="20" as="geometry" />
        </mxCell>
        <mxCell id="lni71YWlgwytNNIKN3gq-414" value="" style="shape=flexArrow;endArrow=none;html=1;rounded=0;endFill=0;dashed=1;fillColor=#fff2cc;gradientColor=none;strokeColor=#d6b656;" parent="lni71YWlgwytNNIKN3gq-3" edge="1">
          <mxGeometry width="50" height="50" relative="1" as="geometry">
            <mxPoint x="-80" y="-10" as="sourcePoint" />
            <mxPoint x="-80" y="-80" as="targetPoint" />
          </mxGeometry>
        </mxCell>
        <mxCell id="lni71YWlgwytNNIKN3gq-415" value="" style="whiteSpace=wrap;html=1;aspect=fixed;fillColor=#fff2cc;strokeColor=#d6b656;gradientColor=none;" parent="lni71YWlgwytNNIKN3gq-3" vertex="1">
          <mxGeometry x="-90" y="-20" width="20" height="20" as="geometry" />
        </mxCell>
        <mxCell id="lni71YWlgwytNNIKN3gq-416" value="" style="shape=flexArrow;endArrow=none;html=1;rounded=0;endFill=0;dashed=1;fillColor=#fff2cc;gradientColor=none;strokeColor=#d6b656;" parent="lni71YWlgwytNNIKN3gq-3" edge="1">
          <mxGeometry width="50" height="50" relative="1" as="geometry">
            <mxPoint x="670" y="530" as="sourcePoint" />
            <mxPoint x="630" y="530" as="targetPoint" />
          </mxGeometry>
        </mxCell>
        <mxCell id="lni71YWlgwytNNIKN3gq-417" value="" style="whiteSpace=wrap;html=1;aspect=fixed;fillColor=#fff2cc;strokeColor=#d6b656;gradientColor=none;" parent="lni71YWlgwytNNIKN3gq-3" vertex="1">
          <mxGeometry x="659" y="520" width="20" height="20" as="geometry" />
        </mxCell>
        <mxCell id="lni71YWlgwytNNIKN3gq-1" value="Subway" parent="WIyWlLk6GJQsqaUBKTNV-0" />
        <mxCell id="lni71YWlgwytNNIKN3gq-342" value="" style="shape=flexArrow;endArrow=none;html=1;rounded=0;endFill=0;fillColor=#d5e8d4;gradientColor=none;fillStyle=solid;strokeColor=#82b366;" parent="lni71YWlgwytNNIKN3gq-1" edge="1">
          <mxGeometry width="50" height="50" relative="1" as="geometry">
            <mxPoint x="80" y="560" as="sourcePoint" />
            <mxPoint x="-80" y="-120" as="targetPoint" />
            <Array as="points">
              <mxPoint x="80" y="480" />
              <mxPoint x="40" y="440" />
              <mxPoint x="40" y="200" />
              <mxPoint x="-40" y="120" />
              <mxPoint x="-40" y="40" />
            </Array>
          </mxGeometry>
        </mxCell>
        <mxCell id="lni71YWlgwytNNIKN3gq-343" value="" style="shape=flexArrow;endArrow=none;html=1;rounded=0;endFill=0;fillColor=#dae8fc;gradientColor=none;fillStyle=solid;strokeColor=#6c8ebf;" parent="lni71YWlgwytNNIKN3gq-1" edge="1">
          <mxGeometry width="50" height="50" relative="1" as="geometry">
            <mxPoint x="650" y="580" as="sourcePoint" />
            <mxPoint x="540" y="-130" as="targetPoint" />
            <Array as="points">
              <mxPoint x="600" y="440" />
              <mxPoint x="560" y="400" />
              <mxPoint x="590" y="320" />
              <mxPoint x="600" y="280" />
              <mxPoint x="600" y="200" />
              <mxPoint x="600" y="120" />
              <mxPoint x="560" y="40" />
              <mxPoint x="560" />
              <mxPoint x="560" y="-80" />
            </Array>
          </mxGeometry>
        </mxCell>
        <mxCell id="lni71YWlgwytNNIKN3gq-344" value="" style="shape=flexArrow;endArrow=none;html=1;rounded=0;endFill=0;fillColor=#fad7ac;fillStyle=solid;strokeColor=#b46504;" parent="lni71YWlgwytNNIKN3gq-1" edge="1">
          <mxGeometry width="50" height="50" relative="1" as="geometry">
            <mxPoint x="660" y="570" as="sourcePoint" />
            <mxPoint x="-110" y="-110" as="targetPoint" />
            <Array as="points">
              <mxPoint x="480" y="400" />
              <mxPoint x="480" y="240" />
              <mxPoint x="320" y="80" />
              <mxPoint x="80" y="80" />
            </Array>
          </mxGeometry>
        </mxCell>
        <mxCell id="lni71YWlgwytNNIKN3gq-354" value="37th&lt;div&gt;St&lt;/div&gt;" style="ellipse;whiteSpace=wrap;html=1;aspect=fixed;fillColor=#b0e3e6;strokeColor=#0e8088;" parent="lni71YWlgwytNNIKN3gq-1" vertex="1">
          <mxGeometry x="610" y="517" width="40" height="40" as="geometry" />
        </mxCell>
        <mxCell id="lni71YWlgwytNNIKN3gq-356" value="20th&lt;div&gt;Ave&lt;/div&gt;" style="ellipse;whiteSpace=wrap;html=1;aspect=fixed;fillColor=#b0e3e6;strokeColor=#0e8088;" parent="lni71YWlgwytNNIKN3gq-1" vertex="1">
          <mxGeometry x="-93" y="-81" width="40" height="40" as="geometry" />
        </mxCell>
        <mxCell id="lni71YWlgwytNNIKN3gq-2" value="Streets" parent="WIyWlLk6GJQsqaUBKTNV-0" />
        <mxCell id="lni71YWlgwytNNIKN3gq-36" value="" style="endArrow=none;html=1;rounded=0;strokeWidth=2;" parent="lni71YWlgwytNNIKN3gq-2" edge="1">
          <mxGeometry width="50" height="50" relative="1" as="geometry">
            <mxPoint x="640" y="520" as="sourcePoint" />
            <mxPoint x="640" y="-80" as="targetPoint" />
          </mxGeometry>
        </mxCell>
        <mxCell id="lni71YWlgwytNNIKN3gq-11" value="" style="endArrow=none;html=1;rounded=0;strokeWidth=2;" parent="lni71YWlgwytNNIKN3gq-2" edge="1">
          <mxGeometry width="50" height="50" relative="1" as="geometry">
            <mxPoint x="-80" y="-40" as="sourcePoint" />
            <mxPoint x="680" y="-40" as="targetPoint" />
          </mxGeometry>
        </mxCell>
        <mxCell id="lni71YWlgwytNNIKN3gq-12" value="20th&lt;div&gt;Ave&lt;/div&gt;" style="text;html=1;align=left;verticalAlign=middle;whiteSpace=wrap;rounded=0;container=0;" parent="lni71YWlgwytNNIKN3gq-2" vertex="1">
          <mxGeometry x="-119" y="-55" width="60" height="30" as="geometry" />
        </mxCell>
        <mxCell id="lni71YWlgwytNNIKN3gq-60" value="" style="endArrow=none;html=1;rounded=0;strokeWidth=2;" parent="lni71YWlgwytNNIKN3gq-2" edge="1">
          <mxGeometry width="50" height="50" relative="1" as="geometry">
            <mxPoint x="-40" y="360" as="sourcePoint" />
            <mxPoint x="680" y="360" as="targetPoint" />
          </mxGeometry>
        </mxCell>
        <mxCell id="lni71YWlgwytNNIKN3gq-61" value="30th Ave" style="text;html=1;align=center;verticalAlign=middle;whiteSpace=wrap;rounded=0;container=0;" parent="lni71YWlgwytNNIKN3gq-2" vertex="1">
          <mxGeometry x="-119" y="345" width="60" height="30" as="geometry" />
        </mxCell>
        <mxCell id="lni71YWlgwytNNIKN3gq-45" value="" style="endArrow=none;html=1;rounded=0;strokeWidth=2;" parent="lni71YWlgwytNNIKN3gq-2" edge="1">
          <mxGeometry width="50" height="50" relative="1" as="geometry">
            <mxPoint x="480" y="480" as="sourcePoint" />
            <mxPoint x="480" y="-80" as="targetPoint" />
          </mxGeometry>
        </mxCell>
        <mxCell id="lni71YWlgwytNNIKN3gq-46" value="33rd&lt;div&gt;Street&lt;/div&gt;" style="text;html=1;align=center;verticalAlign=middle;whiteSpace=wrap;rounded=0;container=0;" parent="lni71YWlgwytNNIKN3gq-2" vertex="1">
          <mxGeometry x="450" y="-128" width="60" height="30" as="geometry" />
        </mxCell>
        <mxCell id="lni71YWlgwytNNIKN3gq-14" value="" style="endArrow=none;html=1;rounded=0;strokeWidth=2;" parent="lni71YWlgwytNNIKN3gq-2" edge="1">
          <mxGeometry width="50" height="50" relative="1" as="geometry">
            <mxPoint x="-40" y="40" as="sourcePoint" />
            <mxPoint x="680" y="40" as="targetPoint" />
          </mxGeometry>
        </mxCell>
        <mxCell id="lni71YWlgwytNNIKN3gq-15" value="22nd Ave" style="text;html=1;align=center;verticalAlign=middle;whiteSpace=wrap;rounded=0;container=0;" parent="lni71YWlgwytNNIKN3gq-2" vertex="1">
          <mxGeometry x="-119" y="25" width="54.41860465116279" height="30" as="geometry" />
        </mxCell>
        <mxCell id="lni71YWlgwytNNIKN3gq-37" value="37th&lt;div&gt;Street&lt;/div&gt;" style="text;html=1;align=center;verticalAlign=middle;whiteSpace=wrap;rounded=0;container=0;" parent="lni71YWlgwytNNIKN3gq-2" vertex="1">
          <mxGeometry x="610" y="-128" width="60" height="30" as="geometry" />
        </mxCell>
        <mxCell id="lni71YWlgwytNNIKN3gq-22" value="" style="endArrow=none;html=1;rounded=0;strokeWidth=2;" parent="lni71YWlgwytNNIKN3gq-2" edge="1">
          <mxGeometry width="50" height="50" relative="1" as="geometry">
            <mxPoint x="560" y="480" as="sourcePoint" />
            <mxPoint x="560" y="-80" as="targetPoint" />
          </mxGeometry>
        </mxCell>
        <mxCell id="lni71YWlgwytNNIKN3gq-23" value="35th&lt;div&gt;Street&lt;/div&gt;" style="text;html=1;align=center;verticalAlign=middle;whiteSpace=wrap;rounded=0;container=0;" parent="lni71YWlgwytNNIKN3gq-2" vertex="1">
          <mxGeometry x="530" y="-128" width="60" height="30" as="geometry" />
        </mxCell>
        <mxCell id="lni71YWlgwytNNIKN3gq-57" value="" style="endArrow=none;html=1;rounded=0;strokeWidth=2;" parent="lni71YWlgwytNNIKN3gq-2" edge="1">
          <mxGeometry width="50" height="50" relative="1" as="geometry">
            <mxPoint x="-40" y="280" as="sourcePoint" />
            <mxPoint x="680" y="280" as="targetPoint" />
          </mxGeometry>
        </mxCell>
        <mxCell id="lni71YWlgwytNNIKN3gq-58" value="28th Ave" style="text;html=1;align=center;verticalAlign=middle;whiteSpace=wrap;rounded=0;container=0;" parent="lni71YWlgwytNNIKN3gq-2" vertex="1">
          <mxGeometry x="-119" y="265" width="54.41860465116279" height="30" as="geometry" />
        </mxCell>
        <mxCell id="lni71YWlgwytNNIKN3gq-17" value="" style="endArrow=none;html=1;rounded=0;strokeWidth=2;" parent="lni71YWlgwytNNIKN3gq-2" edge="1">
          <mxGeometry width="50" height="50" relative="1" as="geometry">
            <mxPoint x="-40" y="120" as="sourcePoint" />
            <mxPoint x="680" y="120" as="targetPoint" />
          </mxGeometry>
        </mxCell>
        <mxCell id="lni71YWlgwytNNIKN3gq-18" value="24th Ave" style="text;html=1;align=center;verticalAlign=middle;whiteSpace=wrap;rounded=0;container=0;" parent="lni71YWlgwytNNIKN3gq-2" vertex="1">
          <mxGeometry x="-119" y="105" width="54.41860465116279" height="30" as="geometry" />
        </mxCell>
        <mxCell id="lni71YWlgwytNNIKN3gq-20" value="" style="endArrow=none;html=1;rounded=0;strokeWidth=2;" parent="lni71YWlgwytNNIKN3gq-2" edge="1">
          <mxGeometry width="50" height="50" relative="1" as="geometry">
            <mxPoint x="-40" y="200" as="sourcePoint" />
            <mxPoint x="680" y="200" as="targetPoint" />
          </mxGeometry>
        </mxCell>
        <mxCell id="lni71YWlgwytNNIKN3gq-21" value="26th Ave" style="text;html=1;align=center;verticalAlign=middle;whiteSpace=wrap;rounded=0;container=0;" parent="lni71YWlgwytNNIKN3gq-2" vertex="1">
          <mxGeometry x="-119" y="185" width="54.41860465116279" height="30" as="geometry" />
        </mxCell>
        <mxCell id="lni71YWlgwytNNIKN3gq-27" value="" style="endArrow=none;html=1;rounded=0;strokeWidth=2;" parent="lni71YWlgwytNNIKN3gq-2" edge="1">
          <mxGeometry width="50" height="50" relative="1" as="geometry">
            <mxPoint y="480" as="sourcePoint" />
            <mxPoint y="-80" as="targetPoint" />
          </mxGeometry>
        </mxCell>
        <mxCell id="lni71YWlgwytNNIKN3gq-30" value="" style="endArrow=none;html=1;rounded=0;strokeWidth=2;" parent="lni71YWlgwytNNIKN3gq-2" edge="1">
          <mxGeometry width="50" height="50" relative="1" as="geometry">
            <mxPoint x="320" y="480" as="sourcePoint" />
            <mxPoint x="320" y="-80" as="targetPoint" />
          </mxGeometry>
        </mxCell>
        <mxCell id="lni71YWlgwytNNIKN3gq-31" value="29th&lt;div&gt;Street&lt;/div&gt;" style="text;html=1;align=center;verticalAlign=middle;whiteSpace=wrap;rounded=0;container=0;" parent="lni71YWlgwytNNIKN3gq-2" vertex="1">
          <mxGeometry x="290" y="-128" width="60" height="30" as="geometry" />
        </mxCell>
        <mxCell id="lni71YWlgwytNNIKN3gq-33" value="" style="endArrow=none;html=1;rounded=0;strokeWidth=2;" parent="lni71YWlgwytNNIKN3gq-2" edge="1">
          <mxGeometry width="50" height="50" relative="1" as="geometry">
            <mxPoint x="240" y="480" as="sourcePoint" />
            <mxPoint x="240" y="-80" as="targetPoint" />
          </mxGeometry>
        </mxCell>
        <mxCell id="lni71YWlgwytNNIKN3gq-34" value="27th&lt;div&gt;Street&lt;/div&gt;" style="text;html=1;align=center;verticalAlign=middle;whiteSpace=wrap;rounded=0;container=0;" parent="lni71YWlgwytNNIKN3gq-2" vertex="1">
          <mxGeometry x="210" y="-128" width="60" height="30" as="geometry" />
        </mxCell>
        <mxCell id="lni71YWlgwytNNIKN3gq-39" value="" style="endArrow=none;html=1;rounded=0;strokeWidth=2;" parent="lni71YWlgwytNNIKN3gq-2" edge="1">
          <mxGeometry width="50" height="50" relative="1" as="geometry">
            <mxPoint x="400" y="480" as="sourcePoint" />
            <mxPoint x="400" y="-80" as="targetPoint" />
          </mxGeometry>
        </mxCell>
        <mxCell id="lni71YWlgwytNNIKN3gq-40" value="31st&lt;div&gt;Street&lt;/div&gt;" style="text;html=1;align=center;verticalAlign=middle;whiteSpace=wrap;rounded=0;container=0;" parent="lni71YWlgwytNNIKN3gq-2" vertex="1">
          <mxGeometry x="370" y="-128" width="60" height="30" as="geometry" />
        </mxCell>
        <mxCell id="lni71YWlgwytNNIKN3gq-48" value="" style="endArrow=none;html=1;rounded=0;strokeWidth=2;" parent="lni71YWlgwytNNIKN3gq-2" edge="1">
          <mxGeometry width="50" height="50" relative="1" as="geometry">
            <mxPoint x="80" y="480" as="sourcePoint" />
            <mxPoint x="80" y="-80" as="targetPoint" />
          </mxGeometry>
        </mxCell>
        <mxCell id="lni71YWlgwytNNIKN3gq-49" value="23rd&lt;div&gt;Street&lt;/div&gt;" style="text;html=1;align=center;verticalAlign=middle;whiteSpace=wrap;rounded=0;container=0;" parent="lni71YWlgwytNNIKN3gq-2" vertex="1">
          <mxGeometry x="50" y="-128" width="60" height="30" as="geometry" />
        </mxCell>
        <mxCell id="lni71YWlgwytNNIKN3gq-53" value="" style="endArrow=none;html=1;rounded=0;strokeWidth=2;" parent="lni71YWlgwytNNIKN3gq-2" edge="1">
          <mxGeometry width="50" height="50" relative="1" as="geometry">
            <mxPoint x="160" y="480" as="sourcePoint" />
            <mxPoint x="160" y="-80" as="targetPoint" />
          </mxGeometry>
        </mxCell>
        <mxCell id="lni71YWlgwytNNIKN3gq-54" value="25th&lt;div&gt;Street&lt;/div&gt;" style="text;html=1;align=center;verticalAlign=middle;whiteSpace=wrap;rounded=0;container=0;" parent="lni71YWlgwytNNIKN3gq-2" vertex="1">
          <mxGeometry x="130" y="-128" width="60" height="30" as="geometry" />
        </mxCell>
        <mxCell id="lni71YWlgwytNNIKN3gq-63" value="" style="endArrow=none;html=1;rounded=0;strokeWidth=2;" parent="lni71YWlgwytNNIKN3gq-2" edge="1">
          <mxGeometry width="50" height="50" relative="1" as="geometry">
            <mxPoint x="-40" y="440" as="sourcePoint" />
            <mxPoint x="680" y="440" as="targetPoint" />
          </mxGeometry>
        </mxCell>
        <mxCell id="lni71YWlgwytNNIKN3gq-64" value="32nd Ave" style="text;html=1;align=center;verticalAlign=middle;whiteSpace=wrap;rounded=0;container=0;" parent="lni71YWlgwytNNIKN3gq-2" vertex="1">
          <mxGeometry x="-119" y="425" width="54.41860465116279" height="30" as="geometry" />
        </mxCell>
        <mxCell id="lni71YWlgwytNNIKN3gq-357" value="21st&lt;div&gt;Street&lt;/div&gt;" style="text;html=1;align=center;verticalAlign=middle;whiteSpace=wrap;rounded=0;container=0;" parent="lni71YWlgwytNNIKN3gq-2" vertex="1">
          <mxGeometry x="-30" y="-130" width="60" height="30" as="geometry" />
        </mxCell>
        <mxCell id="lni71YWlgwytNNIKN3gq-419" value="" style="whiteSpace=wrap;html=1;aspect=fixed;fillColor=#f8cecc;strokeColor=#b85450;" parent="lni71YWlgwytNNIKN3gq-2" vertex="1">
          <mxGeometry x="190" y="310" width="20" height="20" as="geometry" />
        </mxCell>
        <mxCell id="lni71YWlgwytNNIKN3gq-421" value="" style="endArrow=none;html=1;rounded=0;" parent="lni71YWlgwytNNIKN3gq-2" edge="1">
          <mxGeometry width="50" height="50" relative="1" as="geometry">
            <mxPoint x="200" y="310" as="sourcePoint" />
            <mxPoint x="200" y="280" as="targetPoint" />
          </mxGeometry>
        </mxCell>
        <mxCell id="lni71YWlgwytNNIKN3gq-65" value="Rooms" parent="WIyWlLk6GJQsqaUBKTNV-0" visible="0" />
        <mxCell id="lni71YWlgwytNNIKN3gq-69" value="" style="whiteSpace=wrap;html=1;aspect=fixed;fillColor=default;" parent="lni71YWlgwytNNIKN3gq-65" vertex="1">
          <mxGeometry x="-10" y="430" width="20" height="20" as="geometry" />
        </mxCell>
        <mxCell id="lni71YWlgwytNNIKN3gq-96" value="" style="whiteSpace=wrap;html=1;aspect=fixed;fillColor=default;" parent="lni71YWlgwytNNIKN3gq-65" vertex="1">
          <mxGeometry x="70" y="430" width="20" height="20" as="geometry" />
        </mxCell>
        <mxCell id="lni71YWlgwytNNIKN3gq-97" value="" style="whiteSpace=wrap;html=1;aspect=fixed;fillColor=#d5e8d4;gradientColor=none;strokeColor=#82b366;" parent="lni71YWlgwytNNIKN3gq-65" vertex="1">
          <mxGeometry x="30" y="430" width="20" height="20" as="geometry" />
        </mxCell>
        <mxCell id="lni71YWlgwytNNIKN3gq-98" value="" style="whiteSpace=wrap;html=1;aspect=fixed;fillColor=default;" parent="lni71YWlgwytNNIKN3gq-65" vertex="1">
          <mxGeometry x="110" y="430" width="20" height="20" as="geometry" />
        </mxCell>
        <mxCell id="lni71YWlgwytNNIKN3gq-99" value="" style="whiteSpace=wrap;html=1;aspect=fixed;fillColor=default;" parent="lni71YWlgwytNNIKN3gq-65" vertex="1">
          <mxGeometry x="150" y="430" width="20" height="20" as="geometry" />
        </mxCell>
        <mxCell id="lni71YWlgwytNNIKN3gq-100" value="" style="whiteSpace=wrap;html=1;aspect=fixed;fillColor=default;" parent="lni71YWlgwytNNIKN3gq-65" vertex="1">
          <mxGeometry x="230" y="430" width="20" height="20" as="geometry" />
        </mxCell>
        <mxCell id="lni71YWlgwytNNIKN3gq-101" value="" style="whiteSpace=wrap;html=1;aspect=fixed;fillColor=default;" parent="lni71YWlgwytNNIKN3gq-65" vertex="1">
          <mxGeometry x="190" y="430" width="20" height="20" as="geometry" />
        </mxCell>
        <mxCell id="lni71YWlgwytNNIKN3gq-102" value="" style="whiteSpace=wrap;html=1;aspect=fixed;fillColor=default;" parent="lni71YWlgwytNNIKN3gq-65" vertex="1">
          <mxGeometry x="270" y="430" width="20" height="20" as="geometry" />
        </mxCell>
        <mxCell id="lni71YWlgwytNNIKN3gq-103" value="" style="whiteSpace=wrap;html=1;aspect=fixed;fillColor=default;" parent="lni71YWlgwytNNIKN3gq-65" vertex="1">
          <mxGeometry x="310" y="430" width="20" height="20" as="geometry" />
        </mxCell>
        <mxCell id="lni71YWlgwytNNIKN3gq-104" value="" style="whiteSpace=wrap;html=1;aspect=fixed;fillColor=default;" parent="lni71YWlgwytNNIKN3gq-65" vertex="1">
          <mxGeometry x="390" y="430" width="20" height="20" as="geometry" />
        </mxCell>
        <mxCell id="lni71YWlgwytNNIKN3gq-105" value="" style="whiteSpace=wrap;html=1;aspect=fixed;fillColor=default;" parent="lni71YWlgwytNNIKN3gq-65" vertex="1">
          <mxGeometry x="350" y="430" width="20" height="20" as="geometry" />
        </mxCell>
        <mxCell id="lni71YWlgwytNNIKN3gq-106" value="" style="whiteSpace=wrap;html=1;aspect=fixed;fillColor=default;" parent="lni71YWlgwytNNIKN3gq-65" vertex="1">
          <mxGeometry x="430" y="430" width="20" height="20" as="geometry" />
        </mxCell>
        <mxCell id="lni71YWlgwytNNIKN3gq-107" value="" style="whiteSpace=wrap;html=1;aspect=fixed;fillColor=default;" parent="lni71YWlgwytNNIKN3gq-65" vertex="1">
          <mxGeometry x="470" y="430" width="20" height="20" as="geometry" />
        </mxCell>
        <mxCell id="lni71YWlgwytNNIKN3gq-108" value="" style="whiteSpace=wrap;html=1;aspect=fixed;fillColor=default;" parent="lni71YWlgwytNNIKN3gq-65" vertex="1">
          <mxGeometry x="550" y="430" width="20" height="20" as="geometry" />
        </mxCell>
        <mxCell id="lni71YWlgwytNNIKN3gq-109" value="" style="whiteSpace=wrap;html=1;aspect=fixed;fillColor=#fad7ac;strokeColor=#b46504;" parent="lni71YWlgwytNNIKN3gq-65" vertex="1">
          <mxGeometry x="510" y="430" width="20" height="20" as="geometry" />
        </mxCell>
        <mxCell id="lni71YWlgwytNNIKN3gq-110" value="" style="whiteSpace=wrap;html=1;aspect=fixed;fillColor=#dae8fc;gradientColor=none;strokeColor=#6c8ebf;" parent="lni71YWlgwytNNIKN3gq-65" vertex="1">
          <mxGeometry x="590" y="430" width="20" height="20" as="geometry" />
        </mxCell>
        <mxCell id="lni71YWlgwytNNIKN3gq-111" value="" style="whiteSpace=wrap;html=1;aspect=fixed;fillColor=default;" parent="lni71YWlgwytNNIKN3gq-65" vertex="1">
          <mxGeometry x="630" y="430" width="20" height="20" as="geometry" />
        </mxCell>
        <mxCell id="lni71YWlgwytNNIKN3gq-112" value="" style="whiteSpace=wrap;html=1;aspect=fixed;fillColor=default;" parent="lni71YWlgwytNNIKN3gq-65" vertex="1">
          <mxGeometry x="-10" y="350" width="20" height="20" as="geometry" />
        </mxCell>
        <mxCell id="lni71YWlgwytNNIKN3gq-113" value="" style="whiteSpace=wrap;html=1;aspect=fixed;fillColor=default;" parent="lni71YWlgwytNNIKN3gq-65" vertex="1">
          <mxGeometry x="70" y="350" width="20" height="20" as="geometry" />
        </mxCell>
        <mxCell id="lni71YWlgwytNNIKN3gq-114" value="" style="whiteSpace=wrap;html=1;aspect=fixed;fillColor=#d5e8d4;gradientColor=none;strokeColor=#82b366;" parent="lni71YWlgwytNNIKN3gq-65" vertex="1">
          <mxGeometry x="30" y="350" width="20" height="20" as="geometry" />
        </mxCell>
        <mxCell id="lni71YWlgwytNNIKN3gq-115" value="" style="whiteSpace=wrap;html=1;aspect=fixed;fillColor=default;" parent="lni71YWlgwytNNIKN3gq-65" vertex="1">
          <mxGeometry x="110" y="350" width="20" height="20" as="geometry" />
        </mxCell>
        <mxCell id="lni71YWlgwytNNIKN3gq-116" value="" style="whiteSpace=wrap;html=1;aspect=fixed;fillColor=default;" parent="lni71YWlgwytNNIKN3gq-65" vertex="1">
          <mxGeometry x="150" y="350" width="20" height="20" as="geometry" />
        </mxCell>
        <mxCell id="lni71YWlgwytNNIKN3gq-117" value="" style="whiteSpace=wrap;html=1;aspect=fixed;fillColor=default;" parent="lni71YWlgwytNNIKN3gq-65" vertex="1">
          <mxGeometry x="230" y="350" width="20" height="20" as="geometry" />
        </mxCell>
        <mxCell id="lni71YWlgwytNNIKN3gq-118" value="" style="whiteSpace=wrap;html=1;aspect=fixed;fillColor=default;" parent="lni71YWlgwytNNIKN3gq-65" vertex="1">
          <mxGeometry x="190" y="350" width="20" height="20" as="geometry" />
        </mxCell>
        <mxCell id="lni71YWlgwytNNIKN3gq-119" value="" style="whiteSpace=wrap;html=1;aspect=fixed;fillColor=default;" parent="lni71YWlgwytNNIKN3gq-65" vertex="1">
          <mxGeometry x="270" y="350" width="20" height="20" as="geometry" />
        </mxCell>
        <mxCell id="lni71YWlgwytNNIKN3gq-120" value="" style="whiteSpace=wrap;html=1;aspect=fixed;fillColor=default;" parent="lni71YWlgwytNNIKN3gq-65" vertex="1">
          <mxGeometry x="310" y="350" width="20" height="20" as="geometry" />
        </mxCell>
        <mxCell id="lni71YWlgwytNNIKN3gq-121" value="" style="whiteSpace=wrap;html=1;aspect=fixed;fillColor=default;" parent="lni71YWlgwytNNIKN3gq-65" vertex="1">
          <mxGeometry x="390" y="350" width="20" height="20" as="geometry" />
        </mxCell>
        <mxCell id="lni71YWlgwytNNIKN3gq-122" value="" style="whiteSpace=wrap;html=1;aspect=fixed;fillColor=default;" parent="lni71YWlgwytNNIKN3gq-65" vertex="1">
          <mxGeometry x="350" y="350" width="20" height="20" as="geometry" />
        </mxCell>
        <mxCell id="lni71YWlgwytNNIKN3gq-123" value="" style="whiteSpace=wrap;html=1;aspect=fixed;fillColor=default;" parent="lni71YWlgwytNNIKN3gq-65" vertex="1">
          <mxGeometry x="430" y="350" width="20" height="20" as="geometry" />
        </mxCell>
        <mxCell id="lni71YWlgwytNNIKN3gq-124" value="" style="whiteSpace=wrap;html=1;aspect=fixed;fillColor=#fad7ac;strokeColor=#b46504;" parent="lni71YWlgwytNNIKN3gq-65" vertex="1">
          <mxGeometry x="470" y="350" width="20" height="20" as="geometry" />
        </mxCell>
        <mxCell id="lni71YWlgwytNNIKN3gq-125" value="" style="whiteSpace=wrap;html=1;aspect=fixed;fillColor=default;" parent="lni71YWlgwytNNIKN3gq-65" vertex="1">
          <mxGeometry x="550" y="350" width="20" height="20" as="geometry" />
        </mxCell>
        <mxCell id="lni71YWlgwytNNIKN3gq-126" value="" style="whiteSpace=wrap;html=1;aspect=fixed;fillColor=default;" parent="lni71YWlgwytNNIKN3gq-65" vertex="1">
          <mxGeometry x="510" y="350" width="20" height="20" as="geometry" />
        </mxCell>
        <mxCell id="lni71YWlgwytNNIKN3gq-127" value="" style="whiteSpace=wrap;html=1;aspect=fixed;fillColor=default;" parent="lni71YWlgwytNNIKN3gq-65" vertex="1">
          <mxGeometry x="590" y="350" width="20" height="20" as="geometry" />
        </mxCell>
        <mxCell id="lni71YWlgwytNNIKN3gq-128" value="" style="whiteSpace=wrap;html=1;aspect=fixed;fillColor=default;" parent="lni71YWlgwytNNIKN3gq-65" vertex="1">
          <mxGeometry x="630" y="350" width="20" height="20" as="geometry" />
        </mxCell>
        <mxCell id="lni71YWlgwytNNIKN3gq-129" value="" style="whiteSpace=wrap;html=1;aspect=fixed;fillColor=default;" parent="lni71YWlgwytNNIKN3gq-65" vertex="1">
          <mxGeometry x="-10" y="270" width="20" height="20" as="geometry" />
        </mxCell>
        <mxCell id="lni71YWlgwytNNIKN3gq-130" value="" style="whiteSpace=wrap;html=1;aspect=fixed;fillColor=default;" parent="lni71YWlgwytNNIKN3gq-65" vertex="1">
          <mxGeometry x="70" y="270" width="20" height="20" as="geometry" />
        </mxCell>
        <mxCell id="lni71YWlgwytNNIKN3gq-131" value="" style="whiteSpace=wrap;html=1;aspect=fixed;fillColor=#d5e8d4;gradientColor=none;strokeColor=#82b366;" parent="lni71YWlgwytNNIKN3gq-65" vertex="1">
          <mxGeometry x="30" y="270" width="20" height="20" as="geometry" />
        </mxCell>
        <mxCell id="lni71YWlgwytNNIKN3gq-132" value="" style="whiteSpace=wrap;html=1;aspect=fixed;fillColor=default;" parent="lni71YWlgwytNNIKN3gq-65" vertex="1">
          <mxGeometry x="110" y="270" width="20" height="20" as="geometry" />
        </mxCell>
        <mxCell id="lni71YWlgwytNNIKN3gq-133" value="" style="whiteSpace=wrap;html=1;aspect=fixed;fillColor=default;" parent="lni71YWlgwytNNIKN3gq-65" vertex="1">
          <mxGeometry x="150" y="270" width="20" height="20" as="geometry" />
        </mxCell>
        <mxCell id="lni71YWlgwytNNIKN3gq-134" value="" style="whiteSpace=wrap;html=1;aspect=fixed;fillColor=default;" parent="lni71YWlgwytNNIKN3gq-65" vertex="1">
          <mxGeometry x="230" y="270" width="20" height="20" as="geometry" />
        </mxCell>
        <mxCell id="lni71YWlgwytNNIKN3gq-135" value="" style="whiteSpace=wrap;html=1;aspect=fixed;fillColor=default;" parent="lni71YWlgwytNNIKN3gq-65" vertex="1">
          <mxGeometry x="190" y="270" width="20" height="20" as="geometry" />
        </mxCell>
        <mxCell id="lni71YWlgwytNNIKN3gq-136" value="" style="whiteSpace=wrap;html=1;aspect=fixed;fillColor=default;" parent="lni71YWlgwytNNIKN3gq-65" vertex="1">
          <mxGeometry x="270" y="270" width="20" height="20" as="geometry" />
        </mxCell>
        <mxCell id="lni71YWlgwytNNIKN3gq-137" value="" style="whiteSpace=wrap;html=1;aspect=fixed;fillColor=default;" parent="lni71YWlgwytNNIKN3gq-65" vertex="1">
          <mxGeometry x="310" y="270" width="20" height="20" as="geometry" />
        </mxCell>
        <mxCell id="lni71YWlgwytNNIKN3gq-138" value="" style="whiteSpace=wrap;html=1;aspect=fixed;fillColor=default;" parent="lni71YWlgwytNNIKN3gq-65" vertex="1">
          <mxGeometry x="390" y="270" width="20" height="20" as="geometry" />
        </mxCell>
        <mxCell id="lni71YWlgwytNNIKN3gq-139" value="" style="whiteSpace=wrap;html=1;aspect=fixed;fillColor=default;" parent="lni71YWlgwytNNIKN3gq-65" vertex="1">
          <mxGeometry x="350" y="270" width="20" height="20" as="geometry" />
        </mxCell>
        <mxCell id="lni71YWlgwytNNIKN3gq-140" value="" style="whiteSpace=wrap;html=1;aspect=fixed;fillColor=default;" parent="lni71YWlgwytNNIKN3gq-65" vertex="1">
          <mxGeometry x="430" y="270" width="20" height="20" as="geometry" />
        </mxCell>
        <mxCell id="lni71YWlgwytNNIKN3gq-141" value="" style="whiteSpace=wrap;html=1;aspect=fixed;fillColor=#fad7ac;strokeColor=#b46504;" parent="lni71YWlgwytNNIKN3gq-65" vertex="1">
          <mxGeometry x="470" y="270" width="20" height="20" as="geometry" />
        </mxCell>
        <mxCell id="lni71YWlgwytNNIKN3gq-142" value="" style="whiteSpace=wrap;html=1;aspect=fixed;fillColor=default;" parent="lni71YWlgwytNNIKN3gq-65" vertex="1">
          <mxGeometry x="550" y="270" width="20" height="20" as="geometry" />
        </mxCell>
        <mxCell id="lni71YWlgwytNNIKN3gq-143" value="" style="whiteSpace=wrap;html=1;aspect=fixed;fillColor=default;" parent="lni71YWlgwytNNIKN3gq-65" vertex="1">
          <mxGeometry x="510" y="270" width="20" height="20" as="geometry" />
        </mxCell>
        <mxCell id="lni71YWlgwytNNIKN3gq-144" value="" style="whiteSpace=wrap;html=1;aspect=fixed;fillColor=#dae8fc;gradientColor=none;strokeColor=#6c8ebf;" parent="lni71YWlgwytNNIKN3gq-65" vertex="1">
          <mxGeometry x="590" y="270" width="20" height="20" as="geometry" />
        </mxCell>
        <mxCell id="lni71YWlgwytNNIKN3gq-145" value="" style="whiteSpace=wrap;html=1;aspect=fixed;fillColor=default;" parent="lni71YWlgwytNNIKN3gq-65" vertex="1">
          <mxGeometry x="630" y="270" width="20" height="20" as="geometry" />
        </mxCell>
        <mxCell id="lni71YWlgwytNNIKN3gq-146" value="" style="whiteSpace=wrap;html=1;aspect=fixed;fillColor=default;" parent="lni71YWlgwytNNIKN3gq-65" vertex="1">
          <mxGeometry x="-10" y="190" width="20" height="20" as="geometry" />
        </mxCell>
        <mxCell id="lni71YWlgwytNNIKN3gq-147" value="" style="whiteSpace=wrap;html=1;aspect=fixed;fillColor=default;" parent="lni71YWlgwytNNIKN3gq-65" vertex="1">
          <mxGeometry x="70" y="190" width="20" height="20" as="geometry" />
        </mxCell>
        <mxCell id="lni71YWlgwytNNIKN3gq-148" value="" style="whiteSpace=wrap;html=1;aspect=fixed;fillColor=#d5e8d4;gradientColor=none;strokeColor=#82b366;" parent="lni71YWlgwytNNIKN3gq-65" vertex="1">
          <mxGeometry x="30" y="190" width="20" height="20" as="geometry" />
        </mxCell>
        <mxCell id="lni71YWlgwytNNIKN3gq-149" value="" style="whiteSpace=wrap;html=1;aspect=fixed;fillColor=default;" parent="lni71YWlgwytNNIKN3gq-65" vertex="1">
          <mxGeometry x="110" y="190" width="20" height="20" as="geometry" />
        </mxCell>
        <mxCell id="lni71YWlgwytNNIKN3gq-150" value="" style="whiteSpace=wrap;html=1;aspect=fixed;fillColor=default;" parent="lni71YWlgwytNNIKN3gq-65" vertex="1">
          <mxGeometry x="150" y="190" width="20" height="20" as="geometry" />
        </mxCell>
        <mxCell id="lni71YWlgwytNNIKN3gq-151" value="" style="whiteSpace=wrap;html=1;aspect=fixed;fillColor=default;" parent="lni71YWlgwytNNIKN3gq-65" vertex="1">
          <mxGeometry x="230" y="190" width="20" height="20" as="geometry" />
        </mxCell>
        <mxCell id="lni71YWlgwytNNIKN3gq-152" value="" style="whiteSpace=wrap;html=1;aspect=fixed;fillColor=default;" parent="lni71YWlgwytNNIKN3gq-65" vertex="1">
          <mxGeometry x="190" y="190" width="20" height="20" as="geometry" />
        </mxCell>
        <mxCell id="lni71YWlgwytNNIKN3gq-153" value="" style="whiteSpace=wrap;html=1;aspect=fixed;fillColor=default;" parent="lni71YWlgwytNNIKN3gq-65" vertex="1">
          <mxGeometry x="270" y="190" width="20" height="20" as="geometry" />
        </mxCell>
        <mxCell id="lni71YWlgwytNNIKN3gq-154" value="" style="whiteSpace=wrap;html=1;aspect=fixed;fillColor=default;" parent="lni71YWlgwytNNIKN3gq-65" vertex="1">
          <mxGeometry x="310" y="190" width="20" height="20" as="geometry" />
        </mxCell>
        <mxCell id="lni71YWlgwytNNIKN3gq-155" value="" style="whiteSpace=wrap;html=1;aspect=fixed;fillColor=default;" parent="lni71YWlgwytNNIKN3gq-65" vertex="1">
          <mxGeometry x="390" y="190" width="20" height="20" as="geometry" />
        </mxCell>
        <mxCell id="lni71YWlgwytNNIKN3gq-156" value="" style="whiteSpace=wrap;html=1;aspect=fixed;fillColor=default;" parent="lni71YWlgwytNNIKN3gq-65" vertex="1">
          <mxGeometry x="350" y="190" width="20" height="20" as="geometry" />
        </mxCell>
        <mxCell id="lni71YWlgwytNNIKN3gq-157" value="" style="whiteSpace=wrap;html=1;aspect=fixed;fillColor=#fad7ac;strokeColor=#b46504;" parent="lni71YWlgwytNNIKN3gq-65" vertex="1">
          <mxGeometry x="430" y="190" width="20" height="20" as="geometry" />
        </mxCell>
        <mxCell id="lni71YWlgwytNNIKN3gq-158" value="" style="whiteSpace=wrap;html=1;aspect=fixed;fillColor=default;" parent="lni71YWlgwytNNIKN3gq-65" vertex="1">
          <mxGeometry x="470" y="190" width="20" height="20" as="geometry" />
        </mxCell>
        <mxCell id="lni71YWlgwytNNIKN3gq-159" value="" style="whiteSpace=wrap;html=1;aspect=fixed;fillColor=default;" parent="lni71YWlgwytNNIKN3gq-65" vertex="1">
          <mxGeometry x="550" y="190" width="20" height="20" as="geometry" />
        </mxCell>
        <mxCell id="lni71YWlgwytNNIKN3gq-160" value="" style="whiteSpace=wrap;html=1;aspect=fixed;fillColor=default;" parent="lni71YWlgwytNNIKN3gq-65" vertex="1">
          <mxGeometry x="510" y="190" width="20" height="20" as="geometry" />
        </mxCell>
        <mxCell id="lni71YWlgwytNNIKN3gq-161" value="" style="whiteSpace=wrap;html=1;aspect=fixed;fillColor=#dae8fc;gradientColor=none;strokeColor=#6c8ebf;" parent="lni71YWlgwytNNIKN3gq-65" vertex="1">
          <mxGeometry x="590" y="190" width="20" height="20" as="geometry" />
        </mxCell>
        <mxCell id="lni71YWlgwytNNIKN3gq-162" value="" style="whiteSpace=wrap;html=1;aspect=fixed;fillColor=default;" parent="lni71YWlgwytNNIKN3gq-65" vertex="1">
          <mxGeometry x="630" y="190" width="20" height="20" as="geometry" />
        </mxCell>
        <mxCell id="lni71YWlgwytNNIKN3gq-163" value="" style="whiteSpace=wrap;html=1;aspect=fixed;fillColor=default;" parent="lni71YWlgwytNNIKN3gq-65" vertex="1">
          <mxGeometry x="-10" y="110" width="20" height="20" as="geometry" />
        </mxCell>
        <mxCell id="lni71YWlgwytNNIKN3gq-164" value="" style="whiteSpace=wrap;html=1;aspect=fixed;fillColor=default;" parent="lni71YWlgwytNNIKN3gq-65" vertex="1">
          <mxGeometry x="70" y="110" width="20" height="20" as="geometry" />
        </mxCell>
        <mxCell id="lni71YWlgwytNNIKN3gq-165" value="" style="whiteSpace=wrap;html=1;aspect=fixed;fillColor=default;" parent="lni71YWlgwytNNIKN3gq-65" vertex="1">
          <mxGeometry x="30" y="110" width="20" height="20" as="geometry" />
        </mxCell>
        <mxCell id="lni71YWlgwytNNIKN3gq-166" value="" style="whiteSpace=wrap;html=1;aspect=fixed;fillColor=default;" parent="lni71YWlgwytNNIKN3gq-65" vertex="1">
          <mxGeometry x="110" y="110" width="20" height="20" as="geometry" />
        </mxCell>
        <mxCell id="lni71YWlgwytNNIKN3gq-167" value="" style="whiteSpace=wrap;html=1;aspect=fixed;fillColor=default;" parent="lni71YWlgwytNNIKN3gq-65" vertex="1">
          <mxGeometry x="150" y="110" width="20" height="20" as="geometry" />
        </mxCell>
        <mxCell id="lni71YWlgwytNNIKN3gq-168" value="" style="whiteSpace=wrap;html=1;aspect=fixed;fillColor=default;" parent="lni71YWlgwytNNIKN3gq-65" vertex="1">
          <mxGeometry x="230" y="110" width="20" height="20" as="geometry" />
        </mxCell>
        <mxCell id="lni71YWlgwytNNIKN3gq-169" value="" style="whiteSpace=wrap;html=1;aspect=fixed;fillColor=default;" parent="lni71YWlgwytNNIKN3gq-65" vertex="1">
          <mxGeometry x="190" y="110" width="20" height="20" as="geometry" />
        </mxCell>
        <mxCell id="lni71YWlgwytNNIKN3gq-170" value="" style="whiteSpace=wrap;html=1;aspect=fixed;fillColor=default;" parent="lni71YWlgwytNNIKN3gq-65" vertex="1">
          <mxGeometry x="270" y="110" width="20" height="20" as="geometry" />
        </mxCell>
        <mxCell id="lni71YWlgwytNNIKN3gq-171" value="" style="whiteSpace=wrap;html=1;aspect=fixed;fillColor=default;" parent="lni71YWlgwytNNIKN3gq-65" vertex="1">
          <mxGeometry x="310" y="110" width="20" height="20" as="geometry" />
        </mxCell>
        <mxCell id="lni71YWlgwytNNIKN3gq-172" value="" style="whiteSpace=wrap;html=1;aspect=fixed;fillColor=default;" parent="lni71YWlgwytNNIKN3gq-65" vertex="1">
          <mxGeometry x="390" y="110" width="20" height="20" as="geometry" />
        </mxCell>
        <mxCell id="lni71YWlgwytNNIKN3gq-173" value="" style="whiteSpace=wrap;html=1;aspect=fixed;fillColor=#fad7ac;strokeColor=#b46504;" parent="lni71YWlgwytNNIKN3gq-65" vertex="1">
          <mxGeometry x="350" y="110" width="20" height="20" as="geometry" />
        </mxCell>
        <mxCell id="lni71YWlgwytNNIKN3gq-174" value="" style="whiteSpace=wrap;html=1;aspect=fixed;fillColor=default;" parent="lni71YWlgwytNNIKN3gq-65" vertex="1">
          <mxGeometry x="430" y="110" width="20" height="20" as="geometry" />
        </mxCell>
        <mxCell id="lni71YWlgwytNNIKN3gq-175" value="" style="whiteSpace=wrap;html=1;aspect=fixed;fillColor=default;" parent="lni71YWlgwytNNIKN3gq-65" vertex="1">
          <mxGeometry x="470" y="110" width="20" height="20" as="geometry" />
        </mxCell>
        <mxCell id="lni71YWlgwytNNIKN3gq-176" value="" style="whiteSpace=wrap;html=1;aspect=fixed;fillColor=default;" parent="lni71YWlgwytNNIKN3gq-65" vertex="1">
          <mxGeometry x="550" y="110" width="20" height="20" as="geometry" />
        </mxCell>
        <mxCell id="lni71YWlgwytNNIKN3gq-177" value="" style="whiteSpace=wrap;html=1;aspect=fixed;fillColor=default;" parent="lni71YWlgwytNNIKN3gq-65" vertex="1">
          <mxGeometry x="510" y="110" width="20" height="20" as="geometry" />
        </mxCell>
        <mxCell id="lni71YWlgwytNNIKN3gq-178" value="" style="whiteSpace=wrap;html=1;aspect=fixed;fillColor=#dae8fc;gradientColor=none;strokeColor=#6c8ebf;" parent="lni71YWlgwytNNIKN3gq-65" vertex="1">
          <mxGeometry x="590" y="110" width="20" height="20" as="geometry" />
        </mxCell>
        <mxCell id="lni71YWlgwytNNIKN3gq-179" value="" style="whiteSpace=wrap;html=1;aspect=fixed;fillColor=default;" parent="lni71YWlgwytNNIKN3gq-65" vertex="1">
          <mxGeometry x="630" y="110" width="20" height="20" as="geometry" />
        </mxCell>
        <mxCell id="lni71YWlgwytNNIKN3gq-180" value="" style="whiteSpace=wrap;html=1;aspect=fixed;fillColor=default;" parent="lni71YWlgwytNNIKN3gq-65" vertex="1">
          <mxGeometry x="-10" y="30" width="20" height="20" as="geometry" />
        </mxCell>
        <mxCell id="lni71YWlgwytNNIKN3gq-181" value="" style="whiteSpace=wrap;html=1;aspect=fixed;fillColor=default;" parent="lni71YWlgwytNNIKN3gq-65" vertex="1">
          <mxGeometry x="70" y="30" width="20" height="20" as="geometry" />
        </mxCell>
        <mxCell id="lni71YWlgwytNNIKN3gq-182" value="" style="whiteSpace=wrap;html=1;aspect=fixed;fillColor=#fad7ac;strokeColor=#b46504;" parent="lni71YWlgwytNNIKN3gq-65" vertex="1">
          <mxGeometry x="30" y="30" width="20" height="20" as="geometry" />
        </mxCell>
        <mxCell id="lni71YWlgwytNNIKN3gq-183" value="" style="whiteSpace=wrap;html=1;aspect=fixed;fillColor=default;" parent="lni71YWlgwytNNIKN3gq-65" vertex="1">
          <mxGeometry x="110" y="30" width="20" height="20" as="geometry" />
        </mxCell>
        <mxCell id="lni71YWlgwytNNIKN3gq-184" value="" style="whiteSpace=wrap;html=1;aspect=fixed;fillColor=default;" parent="lni71YWlgwytNNIKN3gq-65" vertex="1">
          <mxGeometry x="150" y="30" width="20" height="20" as="geometry" />
        </mxCell>
        <mxCell id="lni71YWlgwytNNIKN3gq-185" value="" style="whiteSpace=wrap;html=1;aspect=fixed;fillColor=default;" parent="lni71YWlgwytNNIKN3gq-65" vertex="1">
          <mxGeometry x="230" y="30" width="20" height="20" as="geometry" />
        </mxCell>
        <mxCell id="lni71YWlgwytNNIKN3gq-186" value="" style="whiteSpace=wrap;html=1;aspect=fixed;fillColor=default;" parent="lni71YWlgwytNNIKN3gq-65" vertex="1">
          <mxGeometry x="190" y="30" width="20" height="20" as="geometry" />
        </mxCell>
        <mxCell id="lni71YWlgwytNNIKN3gq-187" value="" style="whiteSpace=wrap;html=1;aspect=fixed;fillColor=default;" parent="lni71YWlgwytNNIKN3gq-65" vertex="1">
          <mxGeometry x="270" y="30" width="20" height="20" as="geometry" />
        </mxCell>
        <mxCell id="lni71YWlgwytNNIKN3gq-188" value="" style="whiteSpace=wrap;html=1;aspect=fixed;fillColor=default;" parent="lni71YWlgwytNNIKN3gq-65" vertex="1">
          <mxGeometry x="310" y="30" width="20" height="20" as="geometry" />
        </mxCell>
        <mxCell id="lni71YWlgwytNNIKN3gq-189" value="" style="whiteSpace=wrap;html=1;aspect=fixed;fillColor=default;" parent="lni71YWlgwytNNIKN3gq-65" vertex="1">
          <mxGeometry x="390" y="30" width="20" height="20" as="geometry" />
        </mxCell>
        <mxCell id="lni71YWlgwytNNIKN3gq-190" value="" style="whiteSpace=wrap;html=1;aspect=fixed;fillColor=default;" parent="lni71YWlgwytNNIKN3gq-65" vertex="1">
          <mxGeometry x="350" y="30" width="20" height="20" as="geometry" />
        </mxCell>
        <mxCell id="lni71YWlgwytNNIKN3gq-191" value="" style="whiteSpace=wrap;html=1;aspect=fixed;fillColor=default;" parent="lni71YWlgwytNNIKN3gq-65" vertex="1">
          <mxGeometry x="430" y="30" width="20" height="20" as="geometry" />
        </mxCell>
        <mxCell id="lni71YWlgwytNNIKN3gq-192" value="" style="whiteSpace=wrap;html=1;aspect=fixed;fillColor=default;" parent="lni71YWlgwytNNIKN3gq-65" vertex="1">
          <mxGeometry x="470" y="30" width="20" height="20" as="geometry" />
        </mxCell>
        <mxCell id="lni71YWlgwytNNIKN3gq-193" value="" style="whiteSpace=wrap;html=1;aspect=fixed;fillColor=#dae8fc;gradientColor=none;strokeColor=#6c8ebf;" parent="lni71YWlgwytNNIKN3gq-65" vertex="1">
          <mxGeometry x="550" y="30" width="20" height="20" as="geometry" />
        </mxCell>
        <mxCell id="lni71YWlgwytNNIKN3gq-194" value="" style="whiteSpace=wrap;html=1;aspect=fixed;fillColor=default;" parent="lni71YWlgwytNNIKN3gq-65" vertex="1">
          <mxGeometry x="510" y="30" width="20" height="20" as="geometry" />
        </mxCell>
        <mxCell id="lni71YWlgwytNNIKN3gq-195" value="" style="whiteSpace=wrap;html=1;aspect=fixed;fillColor=default;" parent="lni71YWlgwytNNIKN3gq-65" vertex="1">
          <mxGeometry x="590" y="30" width="20" height="20" as="geometry" />
        </mxCell>
        <mxCell id="lni71YWlgwytNNIKN3gq-196" value="" style="whiteSpace=wrap;html=1;aspect=fixed;fillColor=default;" parent="lni71YWlgwytNNIKN3gq-65" vertex="1">
          <mxGeometry x="630" y="30" width="20" height="20" as="geometry" />
        </mxCell>
        <mxCell id="lni71YWlgwytNNIKN3gq-197" value="" style="whiteSpace=wrap;html=1;aspect=fixed;fillColor=default;" parent="lni71YWlgwytNNIKN3gq-65" vertex="1">
          <mxGeometry x="-10" y="-50" width="20" height="20" as="geometry" />
        </mxCell>
        <mxCell id="lni71YWlgwytNNIKN3gq-198" value="" style="whiteSpace=wrap;html=1;aspect=fixed;fillColor=default;" parent="lni71YWlgwytNNIKN3gq-65" vertex="1">
          <mxGeometry x="70" y="-50" width="20" height="20" as="geometry" />
        </mxCell>
        <mxCell id="lni71YWlgwytNNIKN3gq-199" value="" style="whiteSpace=wrap;html=1;aspect=fixed;fillColor=default;" parent="lni71YWlgwytNNIKN3gq-65" vertex="1">
          <mxGeometry x="30" y="-50" width="20" height="20" as="geometry" />
        </mxCell>
        <mxCell id="lni71YWlgwytNNIKN3gq-200" value="" style="whiteSpace=wrap;html=1;aspect=fixed;fillColor=default;" parent="lni71YWlgwytNNIKN3gq-65" vertex="1">
          <mxGeometry x="110" y="-50" width="20" height="20" as="geometry" />
        </mxCell>
        <mxCell id="lni71YWlgwytNNIKN3gq-201" value="" style="whiteSpace=wrap;html=1;aspect=fixed;fillColor=default;" parent="lni71YWlgwytNNIKN3gq-65" vertex="1">
          <mxGeometry x="150" y="-50" width="20" height="20" as="geometry" />
        </mxCell>
        <mxCell id="lni71YWlgwytNNIKN3gq-202" value="" style="whiteSpace=wrap;html=1;aspect=fixed;fillColor=default;" parent="lni71YWlgwytNNIKN3gq-65" vertex="1">
          <mxGeometry x="230" y="-50" width="20" height="20" as="geometry" />
        </mxCell>
        <mxCell id="lni71YWlgwytNNIKN3gq-203" value="" style="whiteSpace=wrap;html=1;aspect=fixed;fillColor=default;" parent="lni71YWlgwytNNIKN3gq-65" vertex="1">
          <mxGeometry x="190" y="-50" width="20" height="20" as="geometry" />
        </mxCell>
        <mxCell id="lni71YWlgwytNNIKN3gq-204" value="" style="whiteSpace=wrap;html=1;aspect=fixed;fillColor=default;" parent="lni71YWlgwytNNIKN3gq-65" vertex="1">
          <mxGeometry x="270" y="-50" width="20" height="20" as="geometry" />
        </mxCell>
        <mxCell id="lni71YWlgwytNNIKN3gq-205" value="" style="whiteSpace=wrap;html=1;aspect=fixed;fillColor=default;" parent="lni71YWlgwytNNIKN3gq-65" vertex="1">
          <mxGeometry x="310" y="-50" width="20" height="20" as="geometry" />
        </mxCell>
        <mxCell id="lni71YWlgwytNNIKN3gq-206" value="" style="whiteSpace=wrap;html=1;aspect=fixed;fillColor=default;" parent="lni71YWlgwytNNIKN3gq-65" vertex="1">
          <mxGeometry x="390" y="-50" width="20" height="20" as="geometry" />
        </mxCell>
        <mxCell id="lni71YWlgwytNNIKN3gq-207" value="" style="whiteSpace=wrap;html=1;aspect=fixed;fillColor=default;" parent="lni71YWlgwytNNIKN3gq-65" vertex="1">
          <mxGeometry x="350" y="-50" width="20" height="20" as="geometry" />
        </mxCell>
        <mxCell id="lni71YWlgwytNNIKN3gq-208" value="" style="whiteSpace=wrap;html=1;aspect=fixed;fillColor=default;" parent="lni71YWlgwytNNIKN3gq-65" vertex="1">
          <mxGeometry x="430" y="-50" width="20" height="20" as="geometry" />
        </mxCell>
        <mxCell id="lni71YWlgwytNNIKN3gq-209" value="" style="whiteSpace=wrap;html=1;aspect=fixed;fillColor=default;" parent="lni71YWlgwytNNIKN3gq-65" vertex="1">
          <mxGeometry x="470" y="-50" width="20" height="20" as="geometry" />
        </mxCell>
        <mxCell id="lni71YWlgwytNNIKN3gq-210" value="" style="whiteSpace=wrap;html=1;aspect=fixed;fillColor=#dae8fc;gradientColor=none;strokeColor=#6c8ebf;" parent="lni71YWlgwytNNIKN3gq-65" vertex="1">
          <mxGeometry x="550" y="-50" width="20" height="20" as="geometry" />
        </mxCell>
        <mxCell id="lni71YWlgwytNNIKN3gq-211" value="" style="whiteSpace=wrap;html=1;aspect=fixed;fillColor=default;" parent="lni71YWlgwytNNIKN3gq-65" vertex="1">
          <mxGeometry x="510" y="-50" width="20" height="20" as="geometry" />
        </mxCell>
        <mxCell id="lni71YWlgwytNNIKN3gq-212" value="" style="whiteSpace=wrap;html=1;aspect=fixed;fillColor=default;" parent="lni71YWlgwytNNIKN3gq-65" vertex="1">
          <mxGeometry x="590" y="-50" width="20" height="20" as="geometry" />
        </mxCell>
        <mxCell id="lni71YWlgwytNNIKN3gq-213" value="" style="whiteSpace=wrap;html=1;aspect=fixed;fillColor=default;" parent="lni71YWlgwytNNIKN3gq-65" vertex="1">
          <mxGeometry x="630" y="-50" width="20" height="20" as="geometry" />
        </mxCell>
        <mxCell id="lni71YWlgwytNNIKN3gq-214" value="" style="whiteSpace=wrap;html=1;aspect=fixed;fillColor=#fad7ac;strokeColor=#b46504;" parent="lni71YWlgwytNNIKN3gq-65" vertex="1">
          <mxGeometry x="-10" y="-10" width="20" height="20" as="geometry" />
        </mxCell>
        <mxCell id="lni71YWlgwytNNIKN3gq-215" value="" style="whiteSpace=wrap;html=1;aspect=fixed;fillColor=default;" parent="lni71YWlgwytNNIKN3gq-65" vertex="1">
          <mxGeometry x="70" y="-10" width="20" height="20" as="geometry" />
        </mxCell>
        <mxCell id="lni71YWlgwytNNIKN3gq-216" value="" style="whiteSpace=wrap;html=1;aspect=fixed;fillColor=default;" parent="lni71YWlgwytNNIKN3gq-65" vertex="1">
          <mxGeometry x="150" y="-10" width="20" height="20" as="geometry" />
        </mxCell>
        <mxCell id="lni71YWlgwytNNIKN3gq-217" value="" style="whiteSpace=wrap;html=1;aspect=fixed;fillColor=default;" parent="lni71YWlgwytNNIKN3gq-65" vertex="1">
          <mxGeometry x="230" y="-10" width="20" height="20" as="geometry" />
        </mxCell>
        <mxCell id="lni71YWlgwytNNIKN3gq-218" value="" style="whiteSpace=wrap;html=1;aspect=fixed;fillColor=default;" parent="lni71YWlgwytNNIKN3gq-65" vertex="1">
          <mxGeometry x="310" y="-10" width="20" height="20" as="geometry" />
        </mxCell>
        <mxCell id="lni71YWlgwytNNIKN3gq-219" value="" style="whiteSpace=wrap;html=1;aspect=fixed;fillColor=default;" parent="lni71YWlgwytNNIKN3gq-65" vertex="1">
          <mxGeometry x="390" y="-10" width="20" height="20" as="geometry" />
        </mxCell>
        <mxCell id="lni71YWlgwytNNIKN3gq-220" value="" style="whiteSpace=wrap;html=1;aspect=fixed;fillColor=default;" parent="lni71YWlgwytNNIKN3gq-65" vertex="1">
          <mxGeometry x="470" y="-10" width="20" height="20" as="geometry" />
        </mxCell>
        <mxCell id="lni71YWlgwytNNIKN3gq-221" value="" style="whiteSpace=wrap;html=1;aspect=fixed;fillColor=#dae8fc;gradientColor=none;strokeColor=#6c8ebf;" parent="lni71YWlgwytNNIKN3gq-65" vertex="1">
          <mxGeometry x="550" y="-10" width="20" height="20" as="geometry" />
        </mxCell>
        <mxCell id="lni71YWlgwytNNIKN3gq-222" value="" style="whiteSpace=wrap;html=1;aspect=fixed;fillColor=default;" parent="lni71YWlgwytNNIKN3gq-65" vertex="1">
          <mxGeometry x="630" y="-10" width="20" height="20" as="geometry" />
        </mxCell>
        <mxCell id="lni71YWlgwytNNIKN3gq-223" value="" style="whiteSpace=wrap;html=1;aspect=fixed;fillColor=default;" parent="lni71YWlgwytNNIKN3gq-65" vertex="1">
          <mxGeometry x="-10" y="70" width="20" height="20" as="geometry" />
        </mxCell>
        <mxCell id="lni71YWlgwytNNIKN3gq-224" value="" style="whiteSpace=wrap;html=1;aspect=fixed;fillColor=#fad7ac;strokeColor=#b46504;" parent="lni71YWlgwytNNIKN3gq-65" vertex="1">
          <mxGeometry x="70" y="70" width="20" height="20" as="geometry" />
        </mxCell>
        <mxCell id="lni71YWlgwytNNIKN3gq-225" value="" style="whiteSpace=wrap;html=1;aspect=fixed;fillColor=#fad7ac;strokeColor=#b46504;" parent="lni71YWlgwytNNIKN3gq-65" vertex="1">
          <mxGeometry x="150" y="70" width="20" height="20" as="geometry" />
        </mxCell>
        <mxCell id="lni71YWlgwytNNIKN3gq-226" value="" style="whiteSpace=wrap;html=1;aspect=fixed;fillColor=#fad7ac;strokeColor=#b46504;" parent="lni71YWlgwytNNIKN3gq-65" vertex="1">
          <mxGeometry x="230" y="70" width="20" height="20" as="geometry" />
        </mxCell>
        <mxCell id="lni71YWlgwytNNIKN3gq-227" value="" style="whiteSpace=wrap;html=1;aspect=fixed;fillColor=#fad7ac;strokeColor=#b46504;" parent="lni71YWlgwytNNIKN3gq-65" vertex="1">
          <mxGeometry x="310" y="70" width="20" height="20" as="geometry" />
        </mxCell>
        <mxCell id="lni71YWlgwytNNIKN3gq-228" value="" style="whiteSpace=wrap;html=1;aspect=fixed;fillColor=default;" parent="lni71YWlgwytNNIKN3gq-65" vertex="1">
          <mxGeometry x="390" y="70" width="20" height="20" as="geometry" />
        </mxCell>
        <mxCell id="lni71YWlgwytNNIKN3gq-229" value="" style="whiteSpace=wrap;html=1;aspect=fixed;fillColor=default;" parent="lni71YWlgwytNNIKN3gq-65" vertex="1">
          <mxGeometry x="470" y="70" width="20" height="20" as="geometry" />
        </mxCell>
        <mxCell id="lni71YWlgwytNNIKN3gq-230" value="" style="whiteSpace=wrap;html=1;aspect=fixed;fillColor=default;" parent="lni71YWlgwytNNIKN3gq-65" vertex="1">
          <mxGeometry x="550" y="70" width="20" height="20" as="geometry" />
        </mxCell>
        <mxCell id="lni71YWlgwytNNIKN3gq-231" value="" style="whiteSpace=wrap;html=1;aspect=fixed;fillColor=default;" parent="lni71YWlgwytNNIKN3gq-65" vertex="1">
          <mxGeometry x="630" y="70" width="20" height="20" as="geometry" />
        </mxCell>
        <mxCell id="lni71YWlgwytNNIKN3gq-232" value="" style="whiteSpace=wrap;html=1;aspect=fixed;fillColor=#d5e8d4;gradientColor=none;strokeColor=#82b366;" parent="lni71YWlgwytNNIKN3gq-65" vertex="1">
          <mxGeometry x="-10" y="150" width="20" height="20" as="geometry" />
        </mxCell>
        <mxCell id="lni71YWlgwytNNIKN3gq-233" value="" style="whiteSpace=wrap;html=1;aspect=fixed;fillColor=default;" parent="lni71YWlgwytNNIKN3gq-65" vertex="1">
          <mxGeometry x="70" y="150" width="20" height="20" as="geometry" />
        </mxCell>
        <mxCell id="lni71YWlgwytNNIKN3gq-234" value="" style="whiteSpace=wrap;html=1;aspect=fixed;fillColor=default;" parent="lni71YWlgwytNNIKN3gq-65" vertex="1">
          <mxGeometry x="150" y="150" width="20" height="20" as="geometry" />
        </mxCell>
        <mxCell id="lni71YWlgwytNNIKN3gq-235" value="" style="whiteSpace=wrap;html=1;aspect=fixed;fillColor=default;" parent="lni71YWlgwytNNIKN3gq-65" vertex="1">
          <mxGeometry x="230" y="150" width="20" height="20" as="geometry" />
        </mxCell>
        <mxCell id="lni71YWlgwytNNIKN3gq-236" value="" style="whiteSpace=wrap;html=1;aspect=fixed;fillColor=default;" parent="lni71YWlgwytNNIKN3gq-65" vertex="1">
          <mxGeometry x="310" y="150" width="20" height="20" as="geometry" />
        </mxCell>
        <mxCell id="lni71YWlgwytNNIKN3gq-237" value="" style="whiteSpace=wrap;html=1;aspect=fixed;fillColor=#fad7ac;strokeColor=#b46504;" parent="lni71YWlgwytNNIKN3gq-65" vertex="1">
          <mxGeometry x="390" y="150" width="20" height="20" as="geometry" />
        </mxCell>
        <mxCell id="lni71YWlgwytNNIKN3gq-238" value="" style="whiteSpace=wrap;html=1;aspect=fixed;fillColor=default;" parent="lni71YWlgwytNNIKN3gq-65" vertex="1">
          <mxGeometry x="470" y="150" width="20" height="20" as="geometry" />
        </mxCell>
        <mxCell id="lni71YWlgwytNNIKN3gq-239" value="" style="whiteSpace=wrap;html=1;aspect=fixed;fillColor=default;" parent="lni71YWlgwytNNIKN3gq-65" vertex="1">
          <mxGeometry x="550" y="150" width="20" height="20" as="geometry" />
        </mxCell>
        <mxCell id="lni71YWlgwytNNIKN3gq-240" value="" style="whiteSpace=wrap;html=1;aspect=fixed;fillColor=default;" parent="lni71YWlgwytNNIKN3gq-65" vertex="1">
          <mxGeometry x="630" y="150" width="20" height="20" as="geometry" />
        </mxCell>
        <mxCell id="lni71YWlgwytNNIKN3gq-241" value="" style="whiteSpace=wrap;html=1;aspect=fixed;fillColor=default;" parent="lni71YWlgwytNNIKN3gq-65" vertex="1">
          <mxGeometry x="-10" y="230" width="20" height="20" as="geometry" />
        </mxCell>
        <mxCell id="lni71YWlgwytNNIKN3gq-242" value="" style="whiteSpace=wrap;html=1;aspect=fixed;fillColor=default;" parent="lni71YWlgwytNNIKN3gq-65" vertex="1">
          <mxGeometry x="70" y="230" width="20" height="20" as="geometry" />
        </mxCell>
        <mxCell id="lni71YWlgwytNNIKN3gq-243" value="" style="whiteSpace=wrap;html=1;aspect=fixed;fillColor=default;" parent="lni71YWlgwytNNIKN3gq-65" vertex="1">
          <mxGeometry x="150" y="230" width="20" height="20" as="geometry" />
        </mxCell>
        <mxCell id="lni71YWlgwytNNIKN3gq-244" value="" style="whiteSpace=wrap;html=1;aspect=fixed;fillColor=default;" parent="lni71YWlgwytNNIKN3gq-65" vertex="1">
          <mxGeometry x="230" y="230" width="20" height="20" as="geometry" />
        </mxCell>
        <mxCell id="lni71YWlgwytNNIKN3gq-245" value="" style="whiteSpace=wrap;html=1;aspect=fixed;fillColor=default;" parent="lni71YWlgwytNNIKN3gq-65" vertex="1">
          <mxGeometry x="310" y="230" width="20" height="20" as="geometry" />
        </mxCell>
        <mxCell id="lni71YWlgwytNNIKN3gq-246" value="" style="whiteSpace=wrap;html=1;aspect=fixed;fillColor=default;" parent="lni71YWlgwytNNIKN3gq-65" vertex="1">
          <mxGeometry x="390" y="230" width="20" height="20" as="geometry" />
        </mxCell>
        <mxCell id="lni71YWlgwytNNIKN3gq-247" value="" style="whiteSpace=wrap;html=1;aspect=fixed;fillColor=#fad7ac;strokeColor=#b46504;" parent="lni71YWlgwytNNIKN3gq-65" vertex="1">
          <mxGeometry x="470" y="230" width="20" height="20" as="geometry" />
        </mxCell>
        <mxCell id="lni71YWlgwytNNIKN3gq-248" value="" style="whiteSpace=wrap;html=1;aspect=fixed;fillColor=default;" parent="lni71YWlgwytNNIKN3gq-65" vertex="1">
          <mxGeometry x="550" y="230" width="20" height="20" as="geometry" />
        </mxCell>
        <mxCell id="lni71YWlgwytNNIKN3gq-249" value="" style="whiteSpace=wrap;html=1;aspect=fixed;fillColor=default;" parent="lni71YWlgwytNNIKN3gq-65" vertex="1">
          <mxGeometry x="630" y="230" width="20" height="20" as="geometry" />
        </mxCell>
        <mxCell id="lni71YWlgwytNNIKN3gq-250" value="" style="whiteSpace=wrap;html=1;aspect=fixed;fillColor=default;" parent="lni71YWlgwytNNIKN3gq-65" vertex="1">
          <mxGeometry x="-10" y="310" width="20" height="20" as="geometry" />
        </mxCell>
        <mxCell id="lni71YWlgwytNNIKN3gq-251" value="" style="whiteSpace=wrap;html=1;aspect=fixed;fillColor=default;" parent="lni71YWlgwytNNIKN3gq-65" vertex="1">
          <mxGeometry x="70" y="310" width="20" height="20" as="geometry" />
        </mxCell>
        <mxCell id="lni71YWlgwytNNIKN3gq-252" value="" style="whiteSpace=wrap;html=1;aspect=fixed;fillColor=default;" parent="lni71YWlgwytNNIKN3gq-65" vertex="1">
          <mxGeometry x="150" y="310" width="20" height="20" as="geometry" />
        </mxCell>
        <mxCell id="lni71YWlgwytNNIKN3gq-253" value="" style="whiteSpace=wrap;html=1;aspect=fixed;fillColor=default;" parent="lni71YWlgwytNNIKN3gq-65" vertex="1">
          <mxGeometry x="230" y="310" width="20" height="20" as="geometry" />
        </mxCell>
        <mxCell id="lni71YWlgwytNNIKN3gq-254" value="" style="whiteSpace=wrap;html=1;aspect=fixed;fillColor=default;" parent="lni71YWlgwytNNIKN3gq-65" vertex="1">
          <mxGeometry x="310" y="310" width="20" height="20" as="geometry" />
        </mxCell>
        <mxCell id="lni71YWlgwytNNIKN3gq-255" value="" style="whiteSpace=wrap;html=1;aspect=fixed;fillColor=default;" parent="lni71YWlgwytNNIKN3gq-65" vertex="1">
          <mxGeometry x="390" y="310" width="20" height="20" as="geometry" />
        </mxCell>
        <mxCell id="lni71YWlgwytNNIKN3gq-256" value="" style="whiteSpace=wrap;html=1;aspect=fixed;fillColor=#fad7ac;strokeColor=#b46504;" parent="lni71YWlgwytNNIKN3gq-65" vertex="1">
          <mxGeometry x="470" y="310" width="20" height="20" as="geometry" />
        </mxCell>
        <mxCell id="lni71YWlgwytNNIKN3gq-257" value="" style="whiteSpace=wrap;html=1;aspect=fixed;fillColor=default;" parent="lni71YWlgwytNNIKN3gq-65" vertex="1">
          <mxGeometry x="550" y="310" width="20" height="20" as="geometry" />
        </mxCell>
        <mxCell id="lni71YWlgwytNNIKN3gq-258" value="" style="whiteSpace=wrap;html=1;aspect=fixed;fillColor=default;" parent="lni71YWlgwytNNIKN3gq-65" vertex="1">
          <mxGeometry x="630" y="310" width="20" height="20" as="geometry" />
        </mxCell>
        <mxCell id="lni71YWlgwytNNIKN3gq-259" value="" style="whiteSpace=wrap;html=1;aspect=fixed;fillColor=default;" parent="lni71YWlgwytNNIKN3gq-65" vertex="1">
          <mxGeometry x="-10" y="390" width="20" height="20" as="geometry" />
        </mxCell>
        <mxCell id="lni71YWlgwytNNIKN3gq-260" value="" style="whiteSpace=wrap;html=1;aspect=fixed;fillColor=default;" parent="lni71YWlgwytNNIKN3gq-65" vertex="1">
          <mxGeometry x="70" y="390" width="20" height="20" as="geometry" />
        </mxCell>
        <mxCell id="lni71YWlgwytNNIKN3gq-261" value="" style="whiteSpace=wrap;html=1;aspect=fixed;fillColor=default;" parent="lni71YWlgwytNNIKN3gq-65" vertex="1">
          <mxGeometry x="150" y="390" width="20" height="20" as="geometry" />
        </mxCell>
        <mxCell id="lni71YWlgwytNNIKN3gq-262" value="" style="whiteSpace=wrap;html=1;aspect=fixed;fillColor=default;" parent="lni71YWlgwytNNIKN3gq-65" vertex="1">
          <mxGeometry x="230" y="390" width="20" height="20" as="geometry" />
        </mxCell>
        <mxCell id="lni71YWlgwytNNIKN3gq-263" value="" style="whiteSpace=wrap;html=1;aspect=fixed;fillColor=default;" parent="lni71YWlgwytNNIKN3gq-65" vertex="1">
          <mxGeometry x="310" y="390" width="20" height="20" as="geometry" />
        </mxCell>
        <mxCell id="lni71YWlgwytNNIKN3gq-264" value="" style="whiteSpace=wrap;html=1;aspect=fixed;fillColor=default;" parent="lni71YWlgwytNNIKN3gq-65" vertex="1">
          <mxGeometry x="390" y="390" width="20" height="20" as="geometry" />
        </mxCell>
        <mxCell id="lni71YWlgwytNNIKN3gq-265" value="" style="whiteSpace=wrap;html=1;aspect=fixed;fillColor=#fad7ac;strokeColor=#b46504;" parent="lni71YWlgwytNNIKN3gq-65" vertex="1">
          <mxGeometry x="470" y="390" width="20" height="20" as="geometry" />
        </mxCell>
        <mxCell id="lni71YWlgwytNNIKN3gq-266" value="" style="whiteSpace=wrap;html=1;aspect=fixed;fillColor=#dae8fc;gradientColor=none;strokeColor=#6c8ebf;" parent="lni71YWlgwytNNIKN3gq-65" vertex="1">
          <mxGeometry x="550" y="390" width="20" height="20" as="geometry" />
        </mxCell>
        <mxCell id="lni71YWlgwytNNIKN3gq-267" value="" style="whiteSpace=wrap;html=1;aspect=fixed;fillColor=default;" parent="lni71YWlgwytNNIKN3gq-65" vertex="1">
          <mxGeometry x="630" y="390" width="20" height="20" as="geometry" />
        </mxCell>
        <mxCell id="lni71YWlgwytNNIKN3gq-268" value="" style="whiteSpace=wrap;html=1;aspect=fixed;fillColor=default;" parent="lni71YWlgwytNNIKN3gq-65" vertex="1">
          <mxGeometry x="-10" y="470" width="20" height="20" as="geometry" />
        </mxCell>
        <mxCell id="lni71YWlgwytNNIKN3gq-269" value="" style="whiteSpace=wrap;html=1;aspect=fixed;fillColor=#d5e8d4;gradientColor=none;strokeColor=#82b366;" parent="lni71YWlgwytNNIKN3gq-65" vertex="1">
          <mxGeometry x="70" y="470" width="20" height="20" as="geometry" />
        </mxCell>
        <mxCell id="lni71YWlgwytNNIKN3gq-270" value="" style="whiteSpace=wrap;html=1;aspect=fixed;fillColor=default;" parent="lni71YWlgwytNNIKN3gq-65" vertex="1">
          <mxGeometry x="150" y="470" width="20" height="20" as="geometry" />
        </mxCell>
        <mxCell id="lni71YWlgwytNNIKN3gq-271" value="" style="whiteSpace=wrap;html=1;aspect=fixed;fillColor=default;" parent="lni71YWlgwytNNIKN3gq-65" vertex="1">
          <mxGeometry x="230" y="470" width="20" height="20" as="geometry" />
        </mxCell>
        <mxCell id="lni71YWlgwytNNIKN3gq-272" value="" style="whiteSpace=wrap;html=1;aspect=fixed;fillColor=default;" parent="lni71YWlgwytNNIKN3gq-65" vertex="1">
          <mxGeometry x="310" y="470" width="20" height="20" as="geometry" />
        </mxCell>
        <mxCell id="lni71YWlgwytNNIKN3gq-273" value="" style="whiteSpace=wrap;html=1;aspect=fixed;fillColor=default;" parent="lni71YWlgwytNNIKN3gq-65" vertex="1">
          <mxGeometry x="390" y="470" width="20" height="20" as="geometry" />
        </mxCell>
        <mxCell id="lni71YWlgwytNNIKN3gq-274" value="" style="whiteSpace=wrap;html=1;aspect=fixed;fillColor=default;" parent="lni71YWlgwytNNIKN3gq-65" vertex="1">
          <mxGeometry x="470" y="470" width="20" height="20" as="geometry" />
        </mxCell>
        <mxCell id="lni71YWlgwytNNIKN3gq-275" value="" style="whiteSpace=wrap;html=1;aspect=fixed;fillColor=#fad7ac;strokeColor=#b46504;" parent="lni71YWlgwytNNIKN3gq-65" vertex="1">
          <mxGeometry x="550" y="470" width="20" height="20" as="geometry" />
        </mxCell>
        <mxCell id="lni71YWlgwytNNIKN3gq-276" value="" style="whiteSpace=wrap;html=1;aspect=fixed;fillColor=default;" parent="lni71YWlgwytNNIKN3gq-65" vertex="1">
          <mxGeometry x="630" y="470" width="20" height="20" as="geometry" />
        </mxCell>
        <mxCell id="lni71YWlgwytNNIKN3gq-293" value="" style="whiteSpace=wrap;html=1;aspect=fixed;fillColor=default;" parent="lni71YWlgwytNNIKN3gq-65" vertex="1">
          <mxGeometry x="670" y="430" width="20" height="20" as="geometry" />
        </mxCell>
        <mxCell id="lni71YWlgwytNNIKN3gq-294" value="" style="whiteSpace=wrap;html=1;aspect=fixed;fillColor=default;" parent="lni71YWlgwytNNIKN3gq-65" vertex="1">
          <mxGeometry x="670" y="350" width="20" height="20" as="geometry" />
        </mxCell>
        <mxCell id="lni71YWlgwytNNIKN3gq-295" value="" style="whiteSpace=wrap;html=1;aspect=fixed;fillColor=default;" parent="lni71YWlgwytNNIKN3gq-65" vertex="1">
          <mxGeometry x="670" y="270" width="20" height="20" as="geometry" />
        </mxCell>
        <mxCell id="lni71YWlgwytNNIKN3gq-296" value="" style="whiteSpace=wrap;html=1;aspect=fixed;fillColor=default;" parent="lni71YWlgwytNNIKN3gq-65" vertex="1">
          <mxGeometry x="670" y="190" width="20" height="20" as="geometry" />
        </mxCell>
        <mxCell id="lni71YWlgwytNNIKN3gq-297" value="" style="whiteSpace=wrap;html=1;aspect=fixed;fillColor=default;" parent="lni71YWlgwytNNIKN3gq-65" vertex="1">
          <mxGeometry x="670" y="110" width="20" height="20" as="geometry" />
        </mxCell>
        <mxCell id="lni71YWlgwytNNIKN3gq-298" value="" style="whiteSpace=wrap;html=1;aspect=fixed;fillColor=default;" parent="lni71YWlgwytNNIKN3gq-65" vertex="1">
          <mxGeometry x="670" y="30" width="20" height="20" as="geometry" />
        </mxCell>
        <mxCell id="lni71YWlgwytNNIKN3gq-299" value="" style="whiteSpace=wrap;html=1;aspect=fixed;fillColor=default;" parent="lni71YWlgwytNNIKN3gq-65" vertex="1">
          <mxGeometry x="670" y="-50" width="20" height="20" as="geometry" />
        </mxCell>
        <mxCell id="lni71YWlgwytNNIKN3gq-309" value="" style="whiteSpace=wrap;html=1;aspect=fixed;fillColor=default;" parent="lni71YWlgwytNNIKN3gq-65" vertex="1">
          <mxGeometry x="-50" y="430" width="20" height="20" as="geometry" />
        </mxCell>
        <mxCell id="lni71YWlgwytNNIKN3gq-310" value="" style="whiteSpace=wrap;html=1;aspect=fixed;fillColor=default;" parent="lni71YWlgwytNNIKN3gq-65" vertex="1">
          <mxGeometry x="-50" y="350" width="20" height="20" as="geometry" />
        </mxCell>
        <mxCell id="lni71YWlgwytNNIKN3gq-311" value="" style="whiteSpace=wrap;html=1;aspect=fixed;fillColor=default;" parent="lni71YWlgwytNNIKN3gq-65" vertex="1">
          <mxGeometry x="-50" y="270" width="20" height="20" as="geometry" />
        </mxCell>
        <mxCell id="lni71YWlgwytNNIKN3gq-312" value="" style="whiteSpace=wrap;html=1;aspect=fixed;fillColor=default;" parent="lni71YWlgwytNNIKN3gq-65" vertex="1">
          <mxGeometry x="-50" y="190" width="20" height="20" as="geometry" />
        </mxCell>
        <mxCell id="lni71YWlgwytNNIKN3gq-313" value="" style="whiteSpace=wrap;html=1;aspect=fixed;fillColor=#d5e8d4;gradientColor=none;strokeColor=#82b366;" parent="lni71YWlgwytNNIKN3gq-65" vertex="1">
          <mxGeometry x="-50" y="110" width="20" height="20" as="geometry" />
        </mxCell>
        <mxCell id="lni71YWlgwytNNIKN3gq-314" value="" style="whiteSpace=wrap;html=1;aspect=fixed;fillColor=#d5e8d4;gradientColor=none;strokeColor=#82b366;" parent="lni71YWlgwytNNIKN3gq-65" vertex="1">
          <mxGeometry x="-50" y="30" width="20" height="20" as="geometry" />
        </mxCell>
        <mxCell id="lni71YWlgwytNNIKN3gq-315" value="" style="whiteSpace=wrap;html=1;aspect=fixed;fillColor=#fad7ac;strokeColor=#b46504;" parent="lni71YWlgwytNNIKN3gq-65" vertex="1">
          <mxGeometry x="-50" y="-50" width="20" height="20" as="geometry" />
        </mxCell>
        <mxCell id="lni71YWlgwytNNIKN3gq-325" value="" style="whiteSpace=wrap;html=1;aspect=fixed;fillColor=default;" parent="lni71YWlgwytNNIKN3gq-65" vertex="1">
          <mxGeometry x="-10" y="-90" width="20" height="20" as="geometry" />
        </mxCell>
        <mxCell id="lni71YWlgwytNNIKN3gq-326" value="" style="whiteSpace=wrap;html=1;aspect=fixed;fillColor=default;" parent="lni71YWlgwytNNIKN3gq-65" vertex="1">
          <mxGeometry x="70" y="-90" width="20" height="20" as="geometry" />
        </mxCell>
        <mxCell id="lni71YWlgwytNNIKN3gq-327" value="" style="whiteSpace=wrap;html=1;aspect=fixed;fillColor=default;" parent="lni71YWlgwytNNIKN3gq-65" vertex="1">
          <mxGeometry x="150" y="-90" width="20" height="20" as="geometry" />
        </mxCell>
        <mxCell id="lni71YWlgwytNNIKN3gq-328" value="" style="whiteSpace=wrap;html=1;aspect=fixed;fillColor=default;" parent="lni71YWlgwytNNIKN3gq-65" vertex="1">
          <mxGeometry x="230" y="-90" width="20" height="20" as="geometry" />
        </mxCell>
        <mxCell id="lni71YWlgwytNNIKN3gq-329" value="" style="whiteSpace=wrap;html=1;aspect=fixed;fillColor=default;" parent="lni71YWlgwytNNIKN3gq-65" vertex="1">
          <mxGeometry x="310" y="-90" width="20" height="20" as="geometry" />
        </mxCell>
        <mxCell id="lni71YWlgwytNNIKN3gq-330" value="" style="whiteSpace=wrap;html=1;aspect=fixed;fillColor=default;" parent="lni71YWlgwytNNIKN3gq-65" vertex="1">
          <mxGeometry x="390" y="-90" width="20" height="20" as="geometry" />
        </mxCell>
        <mxCell id="lni71YWlgwytNNIKN3gq-331" value="" style="whiteSpace=wrap;html=1;aspect=fixed;fillColor=default;" parent="lni71YWlgwytNNIKN3gq-65" vertex="1">
          <mxGeometry x="470" y="-90" width="20" height="20" as="geometry" />
        </mxCell>
        <mxCell id="lni71YWlgwytNNIKN3gq-332" value="" style="whiteSpace=wrap;html=1;aspect=fixed;fillColor=#dae8fc;gradientColor=none;strokeColor=#6c8ebf;" parent="lni71YWlgwytNNIKN3gq-65" vertex="1">
          <mxGeometry x="550" y="-90" width="20" height="20" as="geometry" />
        </mxCell>
        <mxCell id="lni71YWlgwytNNIKN3gq-333" value="" style="whiteSpace=wrap;html=1;aspect=fixed;fillColor=default;" parent="lni71YWlgwytNNIKN3gq-65" vertex="1">
          <mxGeometry x="630" y="-90" width="20" height="20" as="geometry" />
        </mxCell>
        <mxCell id="WUlikb5VFnGKmN1ONbDT-3" value="" style="whiteSpace=wrap;html=1;aspect=fixed;fillColor=default;" vertex="1" parent="lni71YWlgwytNNIKN3gq-65">
          <mxGeometry x="629" y="520" width="20" height="20" as="geometry" />
        </mxCell>
        <mxCell id="WUlikb5VFnGKmN1ONbDT-4" value="" style="whiteSpace=wrap;html=1;aspect=fixed;fillColor=default;" vertex="1" parent="lni71YWlgwytNNIKN3gq-65">
          <mxGeometry x="-90" y="-50" width="20" height="20" as="geometry" />
        </mxCell>
        <mxCell id="lni71YWlgwytNNIKN3gq-368" value="Key" parent="WIyWlLk6GJQsqaUBKTNV-0" />
        <mxCell id="lni71YWlgwytNNIKN3gq-384" value="" style="group" parent="lni71YWlgwytNNIKN3gq-368" connectable="0" vertex="1">
          <mxGeometry x="100" y="539" width="480" height="80" as="geometry" />
        </mxCell>
        <mxCell id="lni71YWlgwytNNIKN3gq-383" value="" style="rounded=1;whiteSpace=wrap;html=1;" parent="lni71YWlgwytNNIKN3gq-384" vertex="1">
          <mxGeometry width="480" height="80" as="geometry" />
        </mxCell>
        <mxCell id="lni71YWlgwytNNIKN3gq-373" value="" style="ellipse;whiteSpace=wrap;html=1;aspect=fixed;fillColor=#b0e3e6;strokeColor=#0e8088;" parent="lni71YWlgwytNNIKN3gq-384" vertex="1">
          <mxGeometry x="10" y="20" width="40" height="40" as="geometry" />
        </mxCell>
        <mxCell id="lni71YWlgwytNNIKN3gq-374" value="Subway&lt;div&gt;Junction&lt;/div&gt;" style="text;html=1;align=center;verticalAlign=middle;whiteSpace=wrap;rounded=0;" parent="lni71YWlgwytNNIKN3gq-384" vertex="1">
          <mxGeometry x="50" y="25" width="60" height="30" as="geometry" />
        </mxCell>
        <mxCell id="lni71YWlgwytNNIKN3gq-375" value="" style="shape=flexArrow;endArrow=none;html=1;rounded=0;endFill=0;dashed=1;fillColor=#fff2cc;gradientColor=none;strokeColor=#d6b656;" parent="lni71YWlgwytNNIKN3gq-384" edge="1">
          <mxGeometry width="50" height="50" relative="1" as="geometry">
            <mxPoint x="150" y="60" as="sourcePoint" />
            <mxPoint x="150" y="20" as="targetPoint" />
          </mxGeometry>
        </mxCell>
        <mxCell id="lni71YWlgwytNNIKN3gq-376" value="Storm&lt;div&gt;Drain&lt;/div&gt;" style="text;html=1;align=center;verticalAlign=middle;whiteSpace=wrap;rounded=0;" parent="lni71YWlgwytNNIKN3gq-384" vertex="1">
          <mxGeometry x="160" y="25" width="60" height="30" as="geometry" />
        </mxCell>
        <mxCell id="lni71YWlgwytNNIKN3gq-377" value="" style="shape=flexArrow;endArrow=none;html=1;rounded=0;endFill=0;fillColor=#d5e8d4;gradientColor=none;fillStyle=solid;strokeColor=#82b366;" parent="lni71YWlgwytNNIKN3gq-384" edge="1">
          <mxGeometry width="50" height="50" relative="1" as="geometry">
            <mxPoint x="260" y="60" as="sourcePoint" />
            <mxPoint x="260" y="20" as="targetPoint" />
            <Array as="points" />
          </mxGeometry>
        </mxCell>
        <mxCell id="lni71YWlgwytNNIKN3gq-378" value="" style="shape=flexArrow;endArrow=none;html=1;rounded=0;endFill=0;fillColor=#fad7ac;fillStyle=solid;strokeColor=#b46504;" parent="lni71YWlgwytNNIKN3gq-384" edge="1">
          <mxGeometry width="50" height="50" relative="1" as="geometry">
            <mxPoint x="270" y="60" as="sourcePoint" />
            <mxPoint x="270" y="20" as="targetPoint" />
          </mxGeometry>
        </mxCell>
        <mxCell id="lni71YWlgwytNNIKN3gq-379" value="" style="shape=flexArrow;endArrow=none;html=1;rounded=0;endFill=0;fillColor=#dae8fc;gradientColor=none;fillStyle=solid;strokeColor=#6c8ebf;" parent="lni71YWlgwytNNIKN3gq-384" edge="1">
          <mxGeometry width="50" height="50" relative="1" as="geometry">
            <mxPoint x="280" y="60" as="sourcePoint" />
            <mxPoint x="280" y="20" as="targetPoint" />
          </mxGeometry>
        </mxCell>
        <mxCell id="lni71YWlgwytNNIKN3gq-380" value="Subway" style="text;html=1;align=center;verticalAlign=middle;whiteSpace=wrap;rounded=0;" parent="lni71YWlgwytNNIKN3gq-384" vertex="1">
          <mxGeometry x="290" y="25" width="60" height="30" as="geometry" />
        </mxCell>
        <mxCell id="lni71YWlgwytNNIKN3gq-381" value="" style="whiteSpace=wrap;html=1;aspect=fixed;fillColor=#f8cecc;strokeColor=#b85450;" parent="lni71YWlgwytNNIKN3gq-384" vertex="1">
          <mxGeometry x="380" y="30" width="20" height="20" as="geometry" />
        </mxCell>
        <mxCell id="lni71YWlgwytNNIKN3gq-382" value="Starting&lt;div&gt;Area&lt;/div&gt;" style="text;html=1;align=center;verticalAlign=middle;whiteSpace=wrap;rounded=0;" parent="lni71YWlgwytNNIKN3gq-384" vertex="1">
          <mxGeometry x="410" y="25" width="60" height="30" as="geometry" />
        </mxCell>
      </root>
    </mxGraphModel>
  </diagram>
</mxfile>
